<?xml version="1.0" standalone="no"?>
<!DOCTYPE svg PUBLIC "-//W3C//DTD SVG 20010904//EN"
 "http://www.w3.org/TR/2001/REC-SVG-20010904/DTD/svg10.dtd">
<svg version="1.0" xmlns="http://www.w3.org/2000/svg"
 width="1346.000000pt" height="1621.000000pt" viewBox="0 0 1346.000000 1621.000000"
 preserveAspectRatio="xMidYMid meet">

<g transform="translate(0.000000,1621.000000) scale(0.100000,-0.100000)"
fill="#000000" stroke="none">
<path d="M8210 16165 c0 -3 -7 -51 -15 -108 -21 -138 -46 -256 -102 -484 l-47
-193 -42 0 c-36 0 -47 -6 -80 -42 -65 -71 -127 -157 -196 -273 -93 -156 -112
-197 -146 -315 -36 -126 -51 -224 -58 -390 -8 -189 22 -317 149 -625 98 -239
174 -464 193 -575 20 -115 15 -315 -11 -433 -28 -129 -164 -442 -262 -601 -40
-67 -54 -81 -88 -93 -52 -19 -121 -11 -193 22 -71 33 -88 48 -119 108 -59 117
-55 456 6 562 11 19 54 51 119 90 l101 60 1 43 c0 23 -2 42 -3 42 -14 0 -122
-42 -165 -64 -97 -49 -202 -215 -221 -348 -11 -77 1 -235 23 -320 24 -91 61
-173 111 -248 41 -62 52 -71 103 -90 96 -37 203 -12 323 75 27 19 56 35 64 35
17 0 178 236 172 253 -2 7 11 44 29 84 40 87 87 220 110 306 9 34 20 65 26 68
5 4 10 85 10 200 0 192 0 195 -36 331 -33 125 -77 249 -97 272 -5 5 -14 4 -22
-2 -12 -10 -24 14 -72 136 -56 139 -59 153 -63 251 l-4 103 23 -7 c48 -15 94
-36 111 -52 17 -15 17 -14 -1 28 -10 24 -24 76 -31 114 -7 39 -19 75 -27 82
-26 21 -33 83 -33 321 0 212 2 236 20 271 11 22 24 41 30 43 5 1 12 32 16 68
7 79 28 121 145 296 128 190 206 358 223 479 8 51 39 185 57 243 7 20 17 32
28 32 15 0 19 -12 25 -61 9 -94 7 -300 -4 -338 -14 -50 -71 -140 -85 -135 -7
3 -17 -13 -24 -38 -16 -52 -155 -325 -181 -353 -23 -25 -59 -99 -96 -195 l-29
-75 0 -250 c0 -283 4 -312 70 -480 24 -60 47 -122 50 -137 7 -26 5 -27 -37
-30 l-45 -3 29 -65 30 -65 14 28 c14 25 19 27 79 27 l65 0 80 -76 c44 -42 80
-80 80 -85 0 -5 41 -59 90 -120 86 -106 90 -113 90 -160 0 -52 26 -116 81
-196 16 -23 29 -55 29 -71 0 -15 12 -62 26 -103 25 -72 26 -79 21 -264 -9
-344 -61 -529 -220 -790 -30 -50 -68 -118 -86 -152 -31 -63 -31 -63 -75 -63
-29 0 -48 -6 -57 -17 -25 -30 -158 -131 -220 -168 -87 -51 -190 -93 -297 -121
-77 -20 -117 -24 -220 -23 -70 0 -149 0 -176 -1 -55 -1 -66 5 -246 140 -63 47
-121 90 -128 94 -21 13 23 -89 63 -145 20 -28 35 -52 33 -53 -2 -2 -17 1 -33
5 -46 13 -157 110 -206 180 l-44 62 -3 -63 -3 -63 64 -66 c47 -48 70 -82 86
-125 l21 -58 -25 6 c-148 37 -275 147 -275 238 0 37 -71 194 -134 293 l-25 40
-1 -75 c0 -91 7 -120 29 -120 18 0 51 -85 55 -139 1 -15 67 -130 146 -256
l144 -231 102 20 103 20 22 78 c13 43 27 78 31 78 5 0 23 -7 39 -16 37 -19
319 -38 424 -29 119 10 330 62 415 102 54 25 218 130 274 176 25 21 27 26 17
46 -10 17 -10 25 0 37 10 12 13 12 23 -1 10 -14 22 -5 84 59 45 46 82 95 98
131 14 31 41 76 60 101 22 29 39 65 46 100 l11 54 42 0 42 0 32 103 c104 336
120 724 40 1034 -53 210 -118 318 -303 513 -164 171 -242 277 -316 425 -86
172 -105 248 -104 415 1 185 17 239 163 540 118 244 164 347 216 490 23 65 28
95 32 220 6 169 -13 289 -65 403 -31 67 -31 67 -71 67 -23 0 -41 -2 -41 -5z"/>
<path d="M9471 16065 c-34 -52 -72 -120 -83 -152 -34 -94 -35 -261 -3 -638 22
-251 26 -353 22 -475 -9 -229 -27 -285 -161 -490 -134 -204 -275 -318 -503
-405 l-73 -28 0 -65 c0 -72 -9 -71 80 -8 l41 29 47 -22 48 -23 59 24 c47 19
60 30 68 53 11 35 107 137 122 131 5 -2 17 -7 26 -11 12 -4 36 24 100 122 45
70 102 145 126 166 59 53 108 153 98 204 -4 21 -8 137 -10 258 -2 121 -6 286
-9 368 -4 81 -3 147 1 147 23 -1 41 -34 61 -113 12 -48 35 -116 51 -152 19
-40 25 -65 18 -65 -8 0 -13 -20 -13 -53 -2 -49 -71 -403 -95 -477 -6 -19 -14
-80 -18 -135 -9 -110 -29 -161 -97 -250 -24 -32 -38 -62 -41 -89 l-4 -41 47
50 c106 112 198 255 249 386 28 69 31 95 13 101 -9 3 -9 32 1 124 17 169 18
174 47 174 13 0 24 -2 24 -5 0 -21 42 -371 45 -374 2 -2 10 -1 18 2 19 7 31
315 17 457 -14 145 -30 203 -59 210 -18 4 -27 18 -40 60 -22 70 -36 97 -76
141 -49 55 -125 288 -125 385 0 21 -3 24 -14 15 -11 -9 -14 4 -19 72 -11 156
20 295 63 284 21 -6 50 48 50 95 0 35 -20 108 -30 108 -3 0 -34 -43 -69 -95z"/>
<path d="M6918 15748 c-95 -153 -159 -274 -188 -355 l-23 -63 -47 0 c-39 0
-65 -11 -170 -71 -163 -93 -358 -225 -499 -339 -62 -50 -130 -99 -150 -110
-183 -93 -439 -438 -616 -831 -31 -68 -26 -207 9 -277 74 -146 183 -445 221
-608 48 -202 71 -519 46 -639 -43 -204 -85 -309 -179 -440 -81 -113 -120 -148
-212 -193 -105 -51 -183 -72 -274 -72 -61 0 -77 4 -134 36 -104 57 -130 81
-189 181 l-56 94 6 252 c9 353 32 486 122 708 56 137 142 309 155 309 6 0 10
11 10 25 0 14 14 53 31 86 17 34 28 64 25 67 -3 3 -6 1 -6 -4 0 -5 -9 -20 -20
-34 l-20 -25 2 165 c2 91 -1 188 -5 217 -8 48 -12 54 -63 87 -29 20 -58 36
-64 36 -5 0 -10 -21 -10 -47 0 -144 -67 -374 -146 -508 -30 -49 -54 -96 -54
-103 0 -18 -94 -162 -173 -267 -34 -44 -131 -152 -217 -240 -147 -150 -158
-164 -176 -222 l-19 -63 -42 0 c-38 0 -47 -5 -93 -54 -92 -98 -159 -192 -192
-272 -28 -68 -32 -91 -32 -159 0 -44 6 -93 13 -110 l12 -30 28 71 c63 163 164
318 302 467 78 84 82 87 125 87 41 0 45 2 65 42 12 23 30 66 40 96 27 79 81
161 160 246 68 72 73 76 115 76 25 0 44 5 44 11 0 23 63 159 73 159 7 0 49 65
93 144 72 128 80 146 67 159 -9 8 -13 20 -9 25 6 11 96 44 96 36 0 -2 -16 -36
-36 -75 -19 -39 -33 -77 -30 -84 3 -8 -28 -96 -69 -197 -62 -155 -127 -340
-179 -513 -12 -37 -15 -40 -54 -43 -32 -2 -42 -7 -42 -20 0 -35 -31 -459 -36
-502 l-7 -45 -11 40 -12 40 -8 -46 c-4 -26 -16 -55 -26 -64 -17 -15 -20 -31
-19 -104 l0 -86 15 55 c17 63 25 73 50 68 14 -2 22 -21 35 -83 20 -99 24 -86
39 130 19 284 20 285 45 285 20 0 24 -8 34 -62 7 -35 14 -72 17 -83 5 -19 4
-19 -9 -2 -25 30 -29 19 -22 -60 17 -196 95 -352 201 -403 48 -24 91 -27 282
-22 92 2 102 4 102 21 0 15 11 19 61 25 34 3 72 6 85 6 l24 0 -22 -44 c-19
-40 -26 -46 -78 -60 -122 -34 -313 -46 -412 -25 -29 6 -82 25 -118 41 -36 16
-59 23 -52 17 6 -7 12 -20 12 -29 0 -40 182 -122 302 -136 50 -6 57 -4 67 14
20 37 115 54 189 33 31 -9 34 -8 49 25 14 28 28 38 75 56 38 13 70 34 92 58
36 40 235 367 294 483 18 37 40 67 47 67 7 0 15 8 18 18 2 9 17 57 31 107 38
128 64 306 71 485 3 85 8 197 10 248 l3 92 -58 0 -59 0 -40 73 c-21 39 -51
114 -65 165 -21 74 -39 110 -86 178 -57 83 -92 165 -105 250 -6 42 15 144 56
272 20 60 31 73 44 51 9 -14 130 149 206 278 57 96 81 124 95 110 3 -3 -8 -45
-25 -94 -90 -263 -100 -344 -126 -970 l-5 -143 45 0 45 0 0 -60 0 -60 40 0
c41 0 41 0 35 33 -17 100 -35 376 -35 548 0 214 14 357 54 531 40 175 90 248
253 370 39 29 127 100 196 158 93 78 129 115 142 145 16 39 135 154 200 194
29 18 31 18 73 -1 l42 -19 -16 -30 c-8 -17 -14 -33 -12 -35 2 -2 27 12 56 32
29 19 52 32 52 28 0 -3 -16 -36 -35 -73 -49 -93 -123 -181 -151 -181 -19 0
-24 -8 -34 -56 -7 -31 -21 -82 -31 -113 l-19 -56 42 50 c24 28 87 96 140 153
129 135 149 167 218 337 56 137 126 274 155 304 20 20 39 -48 32 -118 -7 -75
-50 -207 -84 -256 -15 -22 -44 -89 -64 -150 -49 -151 -158 -363 -230 -450 -67
-82 -95 -138 -105 -215 l-7 -55 74 66 c146 130 259 278 288 379 7 25 34 83 60
130 59 105 64 119 51 135 -11 14 15 86 50 134 30 43 43 179 37 390 -3 137 -9
200 -22 241 -20 64 -62 150 -73 150 -4 0 -42 -55 -84 -122z m-1178 -1275 c0
-29 -2 -29 -19 5 -10 18 -9 22 4 22 10 0 15 -9 15 -27z"/>
<path d="M10960 14616 c-107 -38 -153 -96 -218 -276 -77 -212 -77 -212 -76
-385 l1 -160 68 -150 c82 -181 136 -342 172 -513 47 -223 35 -517 -28 -649
-11 -23 -70 -113 -130 -200 -61 -87 -135 -202 -166 -255 -103 -182 -186 -423
-200 -575 -6 -70 -5 -73 15 -73 18 0 37 32 116 193 64 130 128 242 198 347
180 266 288 482 342 679 30 111 31 124 30 291 -1 153 -5 187 -27 272 -38 146
-100 292 -123 296 -30 4 -123 162 -158 266 -22 65 -37 191 -28 240 l7 40 42
-47 c24 -28 54 -80 73 -128 18 -45 54 -109 79 -142 l46 -62 3 41 c2 23 -6 77
-17 120 -22 87 -20 110 5 47 11 -28 24 -43 41 -48 13 -3 45 -21 71 -39 64 -46
104 -65 197 -96 l80 -27 12 -74 c9 -52 18 -77 30 -84 35 -20 84 -79 157 -188
76 -115 176 -297 176 -320 0 -8 10 -19 23 -26 45 -24 67 -209 68 -572 1 -184
-1 -201 -24 -268 -30 -84 -66 -147 -68 -116 0 11 -9 -2 -19 -30 l-18 -50 -1
74 -1 75 -31 -30 c-42 -39 -65 -87 -80 -165 -32 -167 -116 -419 -167 -499 -98
-156 -270 -483 -348 -665 l-43 -100 -41 -3 c-23 -2 -40 -8 -40 -15 0 -7 9
-140 20 -297 11 -157 19 -303 19 -325 -1 -41 -1 -42 -60 243 -18 85 -25 102
-40 102 -18 0 -19 -9 -19 -122 1 -280 81 -496 203 -552 81 -37 250 -31 429 15
105 26 135 38 120 48 -7 4 15 12 50 20 117 24 177 59 247 145 57 69 66 87 86
164 21 83 36 122 58 150 8 10 14 9 28 -4 18 -16 20 -14 40 32 56 132 94 287
106 440 6 81 5 84 -15 84 -16 0 -24 -10 -33 -42 -79 -295 -194 -514 -344 -657
-174 -165 -284 -203 -541 -186 l-104 7 0 44 0 44 -45 0 -45 0 0 84 c0 330 53
562 191 839 61 121 175 318 189 327 5 3 35 57 68 120 32 63 82 157 111 208
127 224 206 429 236 610 14 86 16 146 12 360 -6 291 -23 400 -92 588 -96 258
-221 432 -467 647 -179 156 -218 198 -262 285 -64 126 -71 170 -70 420 0 218
0 222 -20 222 -12 -1 -37 -7 -56 -14z"/>
<path d="M6825 14320 c-4 -7 -7 -46 -6 -87 2 -81 -17 -223 -30 -223 -4 0 -10
6 -13 13 -3 6 -3 -19 0 -57 4 -52 13 -81 36 -118 56 -90 69 -154 67 -319 l-2
-148 -41 -3 c-40 -3 -41 -4 -44 -45 -3 -41 -4 -42 -43 -45 l-40 -3 -32 -80
c-18 -44 -36 -79 -41 -77 -5 2 -28 -27 -53 -65 -48 -75 -50 -62 -7 59 22 63
54 187 54 209 0 5 -6 9 -14 9 -8 0 -17 4 -21 10 -9 15 23 197 49 280 17 53 27
120 35 230 7 85 15 170 18 188 4 25 2 32 -11 32 -19 0 -20 10 -1 130 19 121
19 121 -6 85 -34 -51 -76 -138 -89 -185 -7 -28 -13 -141 -14 -300 -3 -229 -5
-262 -24 -325 -12 -38 -22 -80 -22 -93 0 -17 -4 -22 -14 -19 -11 5 -16 -9 -21
-61 -15 -152 -47 -245 -113 -334 -50 -66 -75 -116 -97 -193 -9 -33 -35 -107
-56 -164 -21 -57 -39 -106 -39 -109 0 -4 24 36 54 88 30 52 85 130 123 174 37
43 85 104 107 135 21 31 35 47 31 36 -26 -77 -45 -147 -50 -187 -7 -51 -30
-86 -157 -231 -37 -42 -68 -80 -68 -85 2 -18 127 133 297 356 138 182 182 246
174 256 -8 9 12 34 83 99 134 124 140 139 139 342 l-2 160 20 -56 c14 -40 26
-59 42 -63 11 -3 23 -3 26 -1 11 11 -27 211 -81 430 -52 210 -59 248 -53 303
5 58 -3 79 -21 51 -5 -8 -9 -8 -14 1 -6 9 -9 9 -15 0z"/>
<path d="M9627 14033 c-19 -27 -58 -86 -86 -131 -29 -46 -84 -121 -123 -165
-90 -105 -197 -265 -248 -373 -132 -275 -197 -628 -172 -924 18 -198 76 -456
105 -465 7 -2 24 -6 40 -9 24 -6 27 -11 27 -48 0 -52 45 -135 108 -201 60 -61
110 -77 272 -84 139 -6 257 11 318 48 19 11 36 18 38 16 2 -2 -10 -43 -27 -91
-33 -96 -39 -154 -20 -201 12 -29 13 -30 28 -10 20 27 99 184 123 246 11 27
25 82 31 122 18 114 98 242 101 161 0 -10 -7 -52 -16 -92 -9 -40 -22 -125 -31
-190 -8 -64 -22 -142 -30 -172 -19 -68 -38 -324 -29 -405 9 -89 34 -135 125
-229 45 -48 84 -85 86 -83 2 2 -6 42 -17 88 -67 284 -83 596 -41 798 30 141
93 301 149 376 65 87 82 133 93 248 6 56 14 141 18 188 6 66 14 95 31 119 21
30 21 31 3 22 -11 -6 -25 -18 -33 -26 -21 -26 -30 -18 -31 27 -1 42 -1 42 -11
12 -53 -152 -70 -185 -93 -185 -19 0 -32 -16 -68 -77 -65 -113 -162 -246 -241
-330 -129 -138 -357 -262 -481 -262 l-60 0 -116 112 c-105 102 -118 119 -147
189 -18 42 -43 119 -57 170 -22 83 -25 112 -25 280 0 362 55 611 200 899 74
147 164 288 177 276 8 -9 158 219 214 326 l40 77 -45 0 c-41 0 -47 -3 -79 -47z"/>
<path d="M4788 13733 c7 -3 16 -2 19 1 4 3 -2 6 -13 5 -11 0 -14 -3 -6 -6z"/>
<path d="M7075 13598 c-26 -63 -29 -88 -11 -88 9 0 16 -7 16 -15 0 -11 -92
-357 -116 -438 -6 -18 -7 -18 -26 -1 -16 16 -21 16 -28 4 -6 -8 -10 -20 -10
-26 0 -6 -22 -48 -50 -94 -46 -77 -49 -84 -32 -96 15 -12 11 -19 -50 -81 -53
-54 -74 -85 -102 -150 -67 -157 -85 -231 -92 -377 -5 -87 -3 -140 3 -148 6 -7
19 -38 29 -68 l19 -55 3 78 c2 65 5 77 17 67 14 -12 16 -5 46 148 6 34 15 64
19 67 13 8 100 -159 150 -290 28 -71 63 -154 78 -184 36 -72 124 -168 162
-176 27 -6 30 -10 30 -46 0 -21 3 -39 8 -39 4 1 41 9 82 18 l75 18 -70 38
c-182 99 -256 209 -323 475 -22 91 -26 128 -26 261 -1 186 11 247 95 509 94
292 142 502 151 666 2 41 -1 50 -15 53 -12 2 -22 -7 -32 -30z"/>
<path d="M10340 13599 c0 -27 28 -341 35 -391 l5 -38 -42 0 -43 0 -29 -112
c-60 -237 -131 -368 -287 -532 -55 -58 -98 -110 -94 -115 10 -17 -45 -122 -69
-131 -19 -8 -259 -70 -271 -70 -6 0 -35 -57 -35 -70 0 -15 88 -12 146 5 27 8
77 31 112 52 125 76 340 248 327 261 -7 8 76 92 91 92 15 0 40 53 49 103 4 21
13 44 20 51 14 14 69 181 101 304 l18 72 43 0 43 0 0 148 c0 139 1 150 21 168
18 16 20 26 15 64 -4 25 -13 63 -22 86 -14 36 -21 43 -68 57 -66 21 -66 21
-66 -4z"/>
<path d="M2970 13499 c-65 -13 -137 -52 -202 -109 -47 -42 -60 -61 -78 -115
l-22 -65 -44 0 -44 0 0 -61 c0 -46 -9 -85 -36 -157 -54 -145 -61 -207 -74
-651 -12 -415 -13 -411 22 -423 5 -2 -2 -41 -15 -88 -30 -113 -25 -134 17 -78
51 68 74 110 86 158 6 25 15 207 20 405 12 486 31 606 120 791 60 125 115 187
211 239 40 22 100 65 132 95 57 52 59 55 36 61 -32 9 -75 9 -129 -2z"/>
<path d="M3514 12728 c-148 -151 -204 -218 -274 -333 -66 -108 -87 -160 -112
-285 -19 -95 -23 -147 -22 -300 0 -216 13 -297 80 -495 52 -156 61 -196 74
-323 17 -161 -14 -378 -63 -444 -12 -16 -53 -53 -91 -81 -67 -50 -73 -52 -143
-55 -64 -4 -78 -1 -115 22 -76 46 -94 69 -136 177 -70 180 -74 216 -58 482 8
135 8 147 -8 141 -10 -4 -16 -1 -16 7 0 23 -70 -54 -101 -110 -36 -68 -41
-144 -9 -161 18 -10 20 -21 20 -115 0 -104 0 -105 24 -105 31 0 32 -4 55 -168
45 -319 38 -429 -40 -671 l-53 -161 -37 0 c-34 0 -41 -5 -87 -67 -111 -153
-261 -404 -331 -556 -49 -105 -107 -280 -126 -380 -18 -97 -19 -261 -1 -344
12 -56 12 -69 -5 -130 -11 -37 -19 -90 -19 -118 0 -47 63 -328 80 -355 6 -11
16 -10 44 4 31 14 43 15 72 6 52 -18 100 -73 114 -132 20 -81 -3 -258 -33
-258 -7 0 -26 -48 -43 -108 -17 -59 -44 -135 -58 -170 -51 -120 -57 -183 -55
-574 2 -333 1 -359 -16 -378 -10 -11 -21 -17 -26 -15 -4 3 -38 48 -75 100 -37
52 -68 95 -70 95 -1 0 4 -19 11 -43 8 -26 11 -70 8 -114 l-6 -72 57 -88 c48
-76 53 -89 38 -94 -35 -13 -44 -38 -49 -136 -6 -114 8 -227 34 -280 10 -21 44
-58 75 -83 54 -42 58 -48 58 -87 0 -30 4 -43 14 -43 7 0 46 -16 86 -36 58 -29
71 -40 67 -55 -3 -11 -2 -19 1 -19 4 0 78 -2 166 -4 113 -3 161 -7 166 -17 9
-14 209 -7 251 10 28 10 134 109 126 117 -3 3 -38 1 -79 -5 -83 -13 -419 -24
-453 -15 -40 10 -159 208 -200 333 -23 71 -14 154 28 245 34 75 40 73 52 -15
9 -73 74 -195 152 -284 l69 -80 68 -9 c44 -6 70 -6 74 1 4 5 77 34 162 63 85
29 158 56 162 59 4 3 -64 2 -150 -2 -163 -8 -272 -3 -303 14 -33 17 -97 112
-113 168 -9 30 -16 84 -16 120 0 36 -7 121 -17 189 -17 116 -17 125 0 171 14
40 17 86 17 262 0 122 5 233 12 259 12 52 12 90 -2 104 -29 29 -80 -222 -80
-397 0 -95 7 -127 26 -127 10 0 14 -13 14 -45 l0 -45 -44 0 -44 0 5 -47 c3
-27 12 -55 20 -64 13 -15 9 -27 -31 -106 -24 -49 -58 -112 -74 -139 -104 -176
-103 -333 3 -518 25 -44 45 -81 45 -83 0 -2 -10 -3 -23 -3 -12 0 -52 20 -88
44 l-65 44 -32 208 c-18 115 -32 218 -32 228 0 19 1 19 13 2 12 -17 17 -8 45
77 33 98 39 158 23 214 -10 34 13 143 29 143 5 0 6 9 3 20 -3 12 2 28 10 38
14 15 17 58 20 287 3 229 7 285 26 372 24 117 59 219 106 313 64 128 86 206
86 302 l0 88 40 0 c39 0 41 2 64 53 13 28 31 94 41 145 l17 92 35 0 c56 0 169
38 276 93 96 49 160 97 386 286 211 178 400 254 694 283 166 15 250 7 391 -40
192 -63 319 -134 461 -259 44 -37 91 -74 106 -82 15 -8 50 -35 79 -62 53 -49
57 -62 34 -120 -8 -22 266 -256 300 -256 23 0 24 2 22 47 -3 42 -11 58 -60
117 -31 37 -93 97 -137 133 -45 36 -123 102 -174 148 -115 105 -226 189 -319
243 -138 81 -198 122 -214 149 -18 31 -86 55 -238 86 -122 25 -392 23 -574 -5
-150 -23 -183 -32 -161 -46 14 -9 -145 -175 -168 -175 -7 0 -62 -43 -121 -95
-106 -93 -109 -94 -139 -83 -29 11 -39 8 -117 -32 -75 -39 -84 -46 -69 -57 9
-7 22 -14 28 -16 15 -6 -13 -27 -109 -82 -44 -25 -92 -45 -106 -45 -36 0 -107
32 -102 46 9 27 -84 31 -186 8 l-71 -16 0 -84 0 -84 -28 0 c-25 0 -30 5 -38
38 -8 31 -13 37 -39 40 -21 2 -42 16 -67 45 l-38 42 24 23 c21 22 22 28 14 65
-15 63 -2 584 17 676 33 167 203 438 425 677 69 74 140 180 172 254 22 52 23
67 23 280 l0 225 59 -59 58 -58 70 6 c158 16 222 51 326 178 132 160 158 244
156 508 -2 209 -20 317 -88 507 -83 232 -102 461 -52 628 64 213 186 406 425
670 l81 90 -47 17 c-27 9 -57 17 -68 17 -14 1 -68 -47 -161 -141z"/>
<path d="M1300 12093 c-129 -136 -186 -218 -304 -440 -89 -168 -249 -430 -339
-556 -29 -41 -68 -103 -87 -140 l-35 -66 23 -24 c12 -13 22 -30 22 -38 0 -8
-16 -69 -35 -135 -56 -197 -68 -285 -62 -469 4 -124 11 -183 30 -260 l25 -100
1 253 c1 218 3 253 16 259 23 8 26 2 41 -78 16 -86 43 -145 84 -184 l30 -29 1
330 c1 246 4 305 10 234 10 -124 32 -222 69 -317 47 -119 132 -232 195 -259
43 -18 116 -18 158 0 43 17 123 109 184 210 46 76 48 84 52 163 4 103 -18 182
-95 334 -29 60 -70 148 -90 196 l-37 88 6 125 c6 132 22 226 58 331 24 70 96
209 108 209 5 0 12 -33 15 -72 16 -158 65 -353 127 -504 29 -70 30 -71 85 -88
31 -10 58 -16 60 -14 2 3 -14 67 -36 144 -83 288 -85 302 -85 657 l0 319 -35
19 c-19 10 -38 18 -42 19 -3 0 -56 -53 -118 -117z m-257 -735 c3 -35 1 -85 -3
-113 -14 -81 -12 -232 4 -268 8 -18 39 -60 69 -94 52 -58 55 -65 62 -130 7
-75 35 -211 59 -287 15 -48 15 -49 -14 -85 -16 -20 -38 -61 -50 -91 -12 -30
-26 -61 -32 -67 -15 -19 -70 -16 -131 7 l-54 20 -26 78 c-15 42 -42 130 -62
194 -35 118 -35 118 -34 310 0 123 4 186 9 173 5 -11 16 -36 24 -55 14 -33 14
-29 15 92 l1 126 -37 12 c-64 21 -61 30 8 30 l65 0 16 70 c21 88 51 140 82
140 21 0 24 -6 29 -62z"/>
<path d="M12171 12053 c-46 -93 -97 -234 -115 -320 l-14 -63 44 0 44 0 0 -227
c0 -348 -28 -500 -125 -698 -31 -62 -81 -143 -115 -185 -62 -76 -130 -186
-130 -210 0 -19 80 -7 137 21 36 18 63 45 113 111 66 87 93 148 84 185 -6 22
64 393 77 407 25 28 160 -353 158 -446 -1 -18 9 -69 21 -112 18 -63 21 -92 15
-145 -17 -167 -60 -332 -129 -498 -15 -36 -26 -82 -26 -108 0 -25 -4 -53 -10
-63 -5 -9 -16 -50 -25 -91 -16 -77 -42 -135 -80 -187 -13 -16 -30 -54 -39 -82
l-15 -53 41 23 c22 13 53 42 69 65 39 57 253 490 274 555 10 29 25 60 35 68
32 26 52 117 57 257 7 156 -9 256 -66 433 -33 102 -39 115 -58 112 -17 -2 -26
8 -48 55 -57 124 -86 209 -92 267 -5 58 -4 62 19 73 24 11 31 5 124 -88 54
-55 104 -97 111 -95 17 7 96 -95 142 -184 21 -41 51 -113 67 -160 26 -81 28
-95 28 -281 1 -191 0 -197 -21 -215 -23 -20 -44 -91 -103 -345 -30 -131 -35
-143 -114 -277 -46 -77 -140 -222 -208 -323 -166 -245 -282 -429 -360 -570
-58 -106 -65 -115 -86 -108 -25 10 -30 3 -87 -136 -108 -260 -164 -489 -180
-734 -11 -165 -9 -273 8 -332 8 -30 18 -73 22 -97 6 -35 10 -42 25 -37 13 4
19 -1 22 -20 3 -14 1 -28 -4 -31 -12 -8 41 -101 107 -189 51 -68 219 -257 234
-263 4 -1 16 16 26 38 l18 40 -52 55 c-54 57 -95 133 -106 197 -7 35 -9 37
-49 40 l-41 3 -3 188 c-2 182 -3 187 -23 187 -21 0 -21 3 -16 163 5 182 23
297 74 471 58 200 156 430 273 637 38 68 48 94 39 99 -9 6 15 54 86 177 129
221 191 315 260 391 53 58 59 62 101 62 l44 0 -6 -42 c-10 -61 -51 -174 -87
-237 -32 -57 -269 -378 -292 -396 -15 -11 -35 -107 -35 -167 0 -31 4 -38 19
-38 15 0 26 22 56 107 20 59 58 154 85 210 l49 103 40 0 c34 0 44 5 68 35 95
118 177 317 208 504 l7 44 -53 -41 c-64 -49 -68 -44 -44 66 14 64 23 82 50
104 64 54 118 230 131 428 17 262 7 433 -38 620 -36 150 -92 226 -188 255 -14
4 -36 15 -48 23 -21 13 -23 21 -18 54 8 48 -9 82 -96 197 -101 133 -117 161
-143 241 -39 124 -47 193 -40 317 4 62 4 151 0 198 -6 74 -9 85 -26 85 -13 0
-30 -22 -58 -77z"/>
<path d="M10936 11132 c-49 -96 -284 -363 -380 -433 -47 -35 -81 -36 -161 -9
-34 12 -84 20 -121 20 l-63 0 -39 53 c-22 28 -68 102 -103 164 -35 61 -67 110
-70 108 -3 -2 -14 -30 -23 -63 l-18 -58 27 -64 c37 -87 82 -155 146 -217 48
-47 63 -55 133 -73 58 -15 112 -20 202 -20 l122 0 50 55 c28 30 121 152 207
271 l157 217 -18 38 c-20 46 -29 48 -48 11z"/>
<path d="M2018 11089 c-38 -51 -75 -128 -92 -196 -19 -71 -22 -388 -6 -590 13
-163 16 -173 50 -173 25 0 28 -3 34 -52 9 -79 7 -198 -4 -259 -5 -30 -27 -88
-47 -129 -36 -71 -38 -80 -38 -172 0 -87 2 -100 22 -119 22 -22 22 -22 80 -5
113 34 252 172 253 249 0 22 20 89 44 150 55 141 67 218 66 432 -1 152 2 185
28 313 l29 143 -28 -6 c-19 -4 -29 -3 -29 5 0 6 13 64 30 129 25 99 28 123 19
155 l-11 39 -20 -34 c-35 -56 -75 -151 -89 -209 -9 -40 -13 -149 -14 -390 -1
-328 -2 -337 -27 -431 -14 -52 -41 -124 -58 -160 -35 -68 -109 -183 -115 -177
-2 2 -8 100 -14 218 -9 179 -16 247 -47 405 -35 177 -38 203 -38 380 -1 205 7
255 60 381 l26 61 -20 38 -19 38 -25 -34z"/>
<path d="M9623 11038 l-41 -43 8 -160 c9 -185 29 -450 36 -482 6 -29 57 -33
70 -5 5 9 10 178 12 375 l3 357 -23 0 c-15 0 -40 -16 -65 -42z"/>
<path d="M306 10833 c-84 -277 -94 -535 -31 -771 47 -174 65 -305 65 -462 0
-181 -23 -284 -112 -500 -132 -320 -161 -449 -162 -720 -1 -281 28 -406 160
-692 l68 -148 43 0 c43 0 43 0 43 -35 0 -20 6 -48 14 -64 21 -40 92 -101 119
-101 12 0 32 -3 44 -6 l22 -6 -19 -38 -19 -38 145 -166 c135 -154 148 -166
163 -152 10 9 20 16 24 16 3 0 51 -56 106 -124 55 -68 114 -133 133 -144 18
-12 61 -41 94 -64 34 -24 101 -68 149 -98 124 -78 195 -149 240 -239 54 -109
64 -176 70 -452 2 -133 8 -245 13 -248 4 -3 13 -22 18 -41 7 -26 16 -36 34
-38 19 -2 40 -26 87 -95 84 -126 87 -133 93 -212 l5 -69 90 -21 c111 -27 150
-43 225 -96 59 -41 61 -42 130 -37 38 3 76 10 83 16 31 26 192 -14 180 -45 -7
-19 23 -51 57 -58 29 -6 86 -78 75 -94 -2 -5 15 -70 40 -146 44 -135 91 -242
139 -320 l25 -40 1 298 0 297 -45 0 -45 0 0 -55 c0 -54 0 -55 -22 -43 -29 16
-38 28 -38 52 0 10 -37 57 -82 105 -46 48 -99 108 -118 134 -34 46 -37 47 -75
42 -22 -3 -69 -21 -105 -39 -94 -48 -158 -47 -252 5 -214 118 -387 341 -421
545 -13 76 -13 87 9 190 27 125 31 336 7 356 -7 6 -13 16 -13 22 0 23 -53 123
-91 174 -31 41 -44 51 -53 42 -10 -8 -26 10 -69 78 -52 82 -61 91 -139 136
-46 27 -110 66 -144 87 -33 22 -67 39 -75 39 -8 1 -45 28 -84 61 -38 34 -103
81 -144 105 -43 25 -76 51 -77 61 -1 10 -6 28 -9 41 -8 24 3 27 40 13 11 -5
25 -4 33 2 9 7 -5 27 -58 83 -127 134 -152 195 -120 289 l18 52 -63 46 c-77
55 -137 129 -207 256 -45 83 -125 188 -134 178 -2 -1 6 -57 16 -122 11 -66 20
-127 19 -135 0 -21 -31 38 -80 155 -32 74 -56 114 -94 155 -28 30 -58 66 -67
80 -24 37 -30 163 -22 415 l7 225 28 0 c16 0 29 -3 29 -7 0 -5 7 -73 15 -153
8 -80 15 -153 15 -164 0 -15 7 -17 45 -14 31 2 45 -1 45 -9 0 -17 38 -138 58
-188 21 -50 153 -198 235 -263 34 -28 92 -66 130 -87 l67 -37 0 45 c0 39 -9
57 -85 163 -105 148 -141 216 -196 373 -37 105 -49 127 -73 140 -65 36 -65 37
-77 171 -13 145 -35 274 -49 278 -5 2 -7 16 -4 31 3 14 1 60 -5 101 -10 73 -9
76 14 99 l24 25 61 -60 c55 -56 60 -64 60 -105 0 -40 5 -50 43 -86 23 -22 107
-89 186 -148 l145 -107 22 44 22 43 -36 50 c-128 178 -175 237 -220 274 -36
30 -60 64 -85 114 -54 112 -65 143 -91 270 -13 68 -30 123 -39 130 -8 7 -17
37 -21 72 -3 33 -23 134 -45 225 -21 91 -47 214 -56 275 -32 203 -7 474 53
565 9 14 21 53 28 88 l12 62 -43 0 -42 0 -27 -87z m23 -2085 c0 -117 -2 -208
-4 -203 -5 11 -35 352 -35 391 0 17 5 24 20 24 19 0 20 -6 19 -212z"/>
<path d="M1482 10632 c-20 -46 -21 -99 -4 -277 19 -191 18 -457 -3 -655 -25
-251 -60 -337 -182 -456 -83 -82 -101 -89 -223 -88 -68 1 -87 6 -204 57 -70
31 -136 63 -147 72 -10 10 -25 49 -34 89 -8 39 -34 149 -57 244 -40 163 -44
172 -59 154 -13 -17 -14 -32 -7 -89 4 -37 9 -126 11 -198 l4 -130 64 -66 c44
-45 83 -75 127 -95 62 -28 62 -28 62 -70 0 -40 1 -42 53 -65 47 -22 65 -24
207 -24 151 0 156 1 210 29 87 45 117 72 154 139 87 155 125 336 133 627 5
175 3 214 -12 270 -32 120 -33 112 11 108 l39 -3 5 -85 c3 -47 9 -91 13 -98
12 -18 55 -407 68 -612 l11 -175 -51 -230 c-45 -201 -191 -807 -207 -858 -5
-16 0 -18 37 -15 l43 3 28 95 c78 261 147 563 173 763 6 47 6 47 44 47 21 0
43 6 49 13 10 11 48 111 69 180 4 13 -3 20 -25 28 -17 6 -35 20 -39 32 -4 12
-7 158 -7 324 l-1 302 -26 28 c-21 21 -34 58 -58 154 -17 70 -31 136 -31 147
0 23 -72 313 -88 353 -8 21 -25 32 -72 47 l-61 21 -17 -37z"/>
<path d="M7606 9618 c-285 -25 -608 -126 -859 -269 -58 -33 -115 -57 -156 -65
-85 -18 -150 -62 -230 -156 -53 -62 -70 -90 -85 -142 -15 -55 -24 -69 -57 -90
-21 -14 -41 -26 -43 -26 -3 0 10 26 29 58 19 31 35 62 35 68 0 6 -16 18 -36
28 l-36 17 -55 -42 c-30 -22 -86 -68 -125 -101 l-70 -61 62 -62 c61 -61 62
-63 46 -87 -14 -22 -86 -88 -162 -149 l-33 -26 37 -20 c20 -11 49 -23 64 -27
l27 -6 -39 -61 c-66 -102 -138 -321 -156 -475 -6 -49 -5 -53 31 -93 l38 -41
53 96 c89 162 222 316 315 365 15 8 58 40 95 72 38 32 99 79 137 104 62 42 67
48 67 82 0 35 3 38 103 99 95 57 103 60 117 44 14 -16 33 -8 279 118 258 132
264 136 287 180 13 25 23 49 24 54 0 5 -35 7 -78 4 -74 -4 -85 -8 -242 -89
-151 -77 -165 -87 -162 -109 2 -21 -9 -32 -71 -72 -88 -57 -126 -72 -175 -65
-32 4 -46 -2 -102 -41 -35 -26 -96 -77 -134 -115 -62 -60 -74 -68 -104 -65
-32 3 -34 1 -75 -77 -39 -73 -45 -80 -75 -83 -28 -3 -31 -5 -19 -15 14 -10 4
-25 -65 -102 -44 -49 -101 -119 -127 -155 l-46 -65 -3 79 c-5 136 27 236 119
377 59 89 61 91 76 70 15 -22 16 -20 80 74 36 53 99 132 140 175 41 44 69 81
63 85 -20 12 -9 24 39 40 58 19 71 32 92 94 14 42 19 47 57 55 38 9 41 13 44
45 3 32 6 36 63 55 33 12 162 74 287 138 286 148 343 168 513 179 72 4 131 8
133 8 1 1 2 8 2 17 0 8 20 24 47 36 41 18 54 19 102 11 81 -15 104 -4 124 61
9 29 17 58 17 64 0 14 -73 14 -224 0z"/>
<path d="M13059 9488 c-21 -46 -24 -66 -22 -157 1 -58 6 -116 12 -130 5 -14
33 -129 62 -254 42 -182 56 -227 67 -222 12 5 14 -7 8 -77 -11 -136 -33 -246
-91 -455 -89 -324 -87 -318 -116 -315 -22 3 -25 -3 -43 -74 -16 -67 -19 -116
-18 -358 0 -155 6 -373 12 -486 7 -113 10 -252 8 -310 l-3 -105 -73 -166 c-40
-91 -92 -194 -115 -230 -23 -35 -132 -156 -244 -270 -112 -113 -203 -208 -203
-211 0 -3 19 -13 41 -24 l42 -18 141 145 c144 148 357 382 412 454 52 67 92
146 115 230 19 68 23 105 23 250 1 94 -5 244 -12 334 -27 333 -13 670 38 942
12 61 45 195 75 300 81 282 89 335 87 534 -2 198 -15 336 -43 455 -22 96 -76
214 -112 248 l-24 23 -24 -53z"/>
<path d="M3826 9444 c-3 -9 -6 -18 -6 -20 0 -2 80 -3 178 -2 193 2 199 0 265
-58 32 -30 45 -34 95 -36 31 -1 73 -2 92 -3 19 0 44 -6 55 -12 11 -6 67 -34
125 -62 131 -64 215 -126 347 -261 132 -133 193 -222 193 -279 l0 -41 40 0 40
0 0 -63 0 -63 80 -39 c44 -21 80 -42 80 -45 0 -20 -164 -48 -174 -31 -9 15
-28 14 -50 -2 -17 -12 -13 -17 42 -53 61 -39 61 -39 42 -59 -20 -21 -19 -21
40 -80 l60 -59 0 -101 c0 -66 4 -107 13 -117 12 -15 71 -58 80 -58 2 0 7 21
11 48 3 26 20 105 37 176 l32 130 31 -36 c17 -20 44 -57 60 -84 l30 -47 31 94
c40 119 59 155 102 200 l34 36 -17 36 c-16 34 -19 35 -38 21 -18 -12 -106 -21
-106 -10 0 2 7 22 15 45 l14 41 -29 15 c-36 19 -50 19 -50 1 0 -8 -5 -18 -11
-21 -11 -8 -149 33 -149 44 1 13 39 153 43 157 2 3 58 14 123 25 65 11 120 22
121 23 6 5 -20 106 -27 106 -11 0 -141 -46 -224 -79 -55 -22 -81 -29 -86 -21
-4 7 -12 -1 -20 -20 -13 -30 -15 -32 -54 -26 -88 14 -124 35 -157 93 -91 160
-189 261 -364 376 -262 172 -486 237 -823 237 -137 0 -161 -2 -166 -16z"/>
<path d="M9727 9232 c-15 -16 -17 -49 -17 -258 0 -131 -4 -266 -10 -299 -5
-33 -33 -123 -61 -200 -50 -136 -53 -141 -114 -197 -64 -59 -175 -195 -175
-215 0 -6 6 -14 13 -16 6 -3 2 -6 -11 -6 -18 -1 -21 -5 -17 -23 8 -38 35 -202
35 -215 0 -8 -14 -13 -39 -13 l-39 0 -16 -69 c-25 -109 -38 -259 -31 -346 8
-106 24 -171 84 -350 59 -179 84 -274 107 -417 16 -100 19 -108 39 -108 19 0
23 -7 29 -46 7 -54 -2 -154 -17 -171 -7 -9 1 -25 28 -54 36 -40 37 -43 30 -95
l-6 -53 36 -7 c27 -5 42 -16 59 -43 40 -62 144 -187 195 -233 33 -30 50 -54
55 -78 3 -19 22 -58 41 -87 l34 -52 -181 -100 c-99 -56 -184 -101 -189 -101
-4 0 -1 26 7 58 7 31 13 74 14 95 l0 38 -27 -15 c-41 -21 -123 -95 -123 -111
0 -8 9 -16 20 -20 20 -6 20 -6 0 -45 -11 -22 -20 -51 -20 -65 0 -14 -18 -53
-40 -85 -37 -55 -43 -59 -82 -62 -39 -3 -45 -7 -61 -43 -11 -22 -39 -72 -63
-111 -49 -80 -54 -108 -23 -124 14 -8 19 -18 16 -33 -3 -12 -17 -75 -32 -139
-26 -115 -28 -118 -58 -126 -25 -7 -33 -15 -38 -43 -25 -125 -31 -150 -35
-146 -2 2 -11 57 -19 123 -23 182 -23 184 -45 184 -20 0 -24 -10 -54 -143 -18
-78 -86 -477 -86 -503 0 -14 9 -9 39 20 l40 39 5 -34 c8 -43 36 -237 36 -245
0 -3 9 -4 21 -2 42 6 99 210 99 355 0 90 1 92 29 112 16 12 33 21 39 21 11 0
37 -98 48 -177 4 -36 1 -74 -11 -122 l-17 -71 -42 0 -42 0 -32 -132 c-35 -150
-77 -383 -86 -473 l-5 -60 29 57 c38 73 66 176 82 298 l12 99 64 3 64 3 40
100 c22 55 56 159 75 230 48 179 111 332 221 535 l57 105 6 -55 c4 -30 5 -84
2 -120 -4 -61 -50 -310 -59 -319 -2 -2 -16 1 -30 8 l-27 12 7 -64 c7 -71 27
-147 59 -220 18 -44 22 -48 46 -42 14 3 68 48 119 98 61 61 100 92 115 92 27
0 102 109 184 272 l56 112 60 21 c76 28 138 84 260 237 l98 122 41 -15 41 -14
46 42 c32 29 52 58 64 95 l19 53 63 0 63 0 49 55 c31 34 78 110 123 198 40 78
125 225 189 327 199 318 317 576 366 800 9 42 19 148 22 241 l6 167 -27 17
c-31 21 -29 22 -50 -29 -11 -26 -16 -69 -16 -136 0 -293 -96 -532 -322 -805
-41 -49 -90 -112 -108 -140 -39 -57 -120 -231 -120 -258 0 -32 -38 -98 -117
-203 -58 -77 -83 -103 -98 -101 -29 3 -236 -210 -215 -223 18 -11 10 -14 -78
-29 -77 -12 -133 -51 -221 -150 -34 -38 -90 -87 -125 -111 -71 -46 -86 -64
-116 -141 -21 -51 -84 -139 -101 -139 -5 0 -9 36 -9 80 l0 80 77 81 c78 81
176 158 336 263 163 107 388 304 358 314 -6 2 -11 9 -11 16 0 7 -10 18 -23 23
-20 9 -30 6 -68 -23 -24 -18 -49 -34 -54 -34 -15 0 -279 -153 -367 -213 -72
-49 -77 -55 -94 -111 -16 -53 -24 -62 -88 -110 -74 -55 -119 -101 -163 -167
-24 -37 -29 -40 -67 -37 l-40 3 3 105 c3 123 14 174 52 252 28 55 30 57 71 60
l43 3 12 84 c8 62 9 88 0 102 -9 14 -8 22 5 36 9 10 18 29 20 42 4 35 62 54
101 34 27 -14 31 -12 130 58 56 40 121 87 145 105 l43 33 -41 21 -42 21 -22
-20 c-18 -17 -35 -21 -94 -21 l-72 0 6 28 c12 50 22 59 71 67 84 12 168 44
233 87 35 24 87 58 114 77 99 65 123 100 170 251 39 121 56 253 56 422 0 120
-3 149 -16 162 -20 20 -34 20 -34 1 0 -8 -9 -15 -19 -15 -16 0 -25 -17 -46
-87 -37 -121 -55 -208 -55 -274 0 -48 -5 -64 -39 -115 -62 -93 -81 -110 -148
-132 l-63 -21 0 44 0 44 -53 12 -54 11 -114 -76 -114 -76 -101 102 -102 103 0
210 c0 116 5 213 10 216 4 3 11 59 14 125 6 121 23 189 110 454 13 41 24 78
24 81 0 10 -60 -5 -96 -24 -40 -21 -105 -108 -161 -215 -43 -84 -73 -133 -73
-120 0 7 -25 134 -35 176 -4 18 -12 22 -45 22 l-40 0 0 129 c0 121 1 130 20
136 17 5 20 15 20 59 0 49 -3 56 -45 97 -37 37 -45 50 -45 82 0 41 5 44 52 22
l33 -16 65 61 c64 59 64 60 35 61 -17 0 -55 8 -85 17 l-55 18 65 44 c36 24
109 79 162 122 53 43 102 78 107 78 15 0 63 78 59 97 -4 21 -98 -52 -98 -77 0
-21 -93 -108 -162 -150 l-47 -29 -11 39 c-9 35 -7 48 24 126 34 82 34 86 16
91 -11 3 -20 8 -20 12 0 3 17 48 37 98 l38 93 42 0 c39 0 45 4 68 40 99 157
131 286 141 575 5 133 3 185 -9 242 -15 69 -63 183 -77 183 -4 0 -14 -8 -23
-18z m770 -3239 c-11 -138 -46 -242 -99 -289 -31 -29 -108 -72 -175 -99 -52
-22 -57 -22 -103 -7 l-49 15 31 43 c16 23 87 96 158 162 70 67 151 153 181
191 30 39 56 71 58 71 2 0 1 -39 -2 -87z"/>
<path d="M12977 9189 c-9 -13 -26 -56 -37 -94 -27 -86 -103 -264 -137 -319
-73 -117 -169 -213 -388 -387 -204 -162 -307 -286 -419 -505 -64 -124 -96
-251 -96 -379 0 -110 15 -166 67 -255 46 -81 47 -82 136 -127 79 -39 96 -44
141 -40 70 6 123 35 186 103 71 78 77 89 99 175 27 105 171 430 190 426 18 -3
56 114 40 124 -7 4 -4 41 11 115 36 183 49 225 105 344 60 126 90 228 101 341
4 41 11 77 16 80 11 7 33 113 43 210 7 71 -6 163 -29 194 -13 17 -14 17 -29
-6z m-49 -576 c-16 -54 -43 -138 -60 -188 -125 -367 -173 -511 -219 -654 -61
-189 -136 -347 -211 -445 -45 -58 -61 -72 -104 -86 -45 -16 -59 -16 -144 -3
-52 7 -97 17 -101 21 -3 4 -15 30 -26 59 -21 51 -21 51 -3 195 24 187 44 247
123 366 19 30 43 84 53 120 10 37 27 82 38 99 18 29 27 33 64 33 l42 0 0 40 0
40 46 0 c42 0 50 4 100 54 36 37 54 63 54 80 0 18 39 65 151 183 174 181 175
183 205 183 l22 0 -30 -97z"/>
<path d="M8051 8981 c-24 -10 -47 -24 -51 -32 -7 -12 -24 -14 -97 -7 -91 8
-315 -5 -358 -22 -13 -5 -29 -18 -34 -29 -11 -20 -86 -52 -276 -118 -127 -44
-274 -120 -348 -179 -32 -26 -56 -48 -54 -51 9 -8 88 18 262 87 261 103 437
150 742 196 l42 6 3 -42 3 -43 84 -29 c90 -29 294 -78 330 -78 12 0 37 -11 56
-25 37 -29 139 -68 164 -63 9 2 21 -1 26 -8 6 -6 89 -48 185 -93 302 -142 458
-239 523 -324 15 -20 34 -37 41 -37 8 0 59 47 114 105 86 89 108 119 148 200
52 108 64 180 44 265 l-13 53 -33 -92 c-39 -109 -80 -200 -135 -297 l-41 -71
-166 75 c-92 41 -198 85 -237 99 -84 31 -169 72 -251 124 -34 22 -71 39 -83
39 -12 0 -49 8 -81 18 -59 17 -60 17 -60 55 0 37 0 37 -40 37 -22 0 -40 5 -40
10 0 22 40 89 55 92 13 3 12 8 -5 35 -14 24 -32 36 -72 48 -40 12 -154 30
-225 35 -2 0 -3 18 -3 40 0 40 0 40 -37 39 -21 0 -58 -8 -82 -18z"/>
<path d="M8590 8897 c0 -29 27 -41 116 -52 47 -6 51 -8 46 -31 -4 -22 6 -29
121 -85 l125 -60 41 21 41 20 0 64 0 64 -72 26 c-106 37 -148 45 -290 53
l-128 6 0 -26z"/>
<path d="M7259 8580 c-110 -11 -223 -37 -309 -73 -84 -34 -294 -163 -354 -217
-42 -37 -98 -143 -89 -166 3 -8 2 -30 -1 -49 -7 -33 -9 -35 -46 -35 l-40 0 0
-59 c0 -33 -5 -61 -11 -63 -15 -5 -58 -131 -71 -206 -15 -89 2 -304 25 -330
14 -15 17 -40 17 -135 l0 -117 39 0 40 0 11 -57 c6 -32 16 -74 21 -93 16 -61
11 -66 -31 -25 -22 21 -40 35 -40 30 0 -6 18 -66 40 -135 22 -69 40 -128 40
-132 0 -5 -20 -8 -45 -8 -33 0 -67 -11 -125 -40 l-80 -40 0 -45 c0 -51 11 -59
93 -71 71 -10 75 -14 37 -34 l-35 -19 36 -1 c35 0 36 1 54 60 10 33 21 60 25
60 4 0 17 -11 30 -25 38 -40 54 -21 73 88 9 51 17 105 17 119 0 41 49 33 97
-16 21 -21 64 -56 95 -77 31 -21 60 -43 63 -49 12 -19 180 -113 280 -156 55
-24 164 -65 243 -90 113 -37 142 -50 142 -65 0 -18 59 -41 221 -85 78 -21 282
-24 349 -5 86 24 168 71 179 101 l9 28 -61 -5 c-34 -2 -72 -5 -84 -7 -20 -3
-23 1 -23 27 0 17 8 54 17 84 l17 53 108 0 109 0 -3 42 c-3 42 -4 43 -55 58
-44 13 -60 25 -103 79 -43 54 -50 68 -50 107 0 50 4 52 86 30 34 -9 79 -35
138 -80 47 -36 91 -66 96 -66 17 0 11 34 -13 70 -13 19 -32 48 -42 64 l-19 28
41 -5 c23 -4 70 -11 106 -18 l64 -12 18 -56 c10 -31 28 -80 41 -108 l23 -53
-105 0 -104 0 0 -59 0 -59 -65 -42 c-64 -42 -65 -43 -65 -87 0 -41 2 -44 23
-38 59 17 118 56 177 118 90 95 93 96 123 42 14 -24 23 -53 20 -64 -3 -12 -33
-33 -81 -57 -92 -44 -109 -58 -127 -101 -9 -21 -21 -33 -33 -33 -10 0 -27 -9
-37 -20 -10 -11 -29 -20 -42 -20 -13 0 -22 -4 -18 -9 3 -5 -3 -11 -12 -13 -10
-2 16 -5 57 -6 97 -1 189 23 353 95 113 50 133 62 182 115 123 133 195 381
195 673 0 137 -14 221 -51 320 -30 82 -134 190 -232 241 -88 46 -128 74 -121
86 3 5 -108 64 -248 132 -139 68 -318 162 -398 209 -80 47 -163 92 -185 101
-90 38 -196 55 -465 75 -354 27 -365 28 -349 47 40 48 133 66 336 65 190 0
285 -10 445 -47 59 -13 120 -24 137 -24 37 0 131 21 131 30 0 3 -34 14 -75 24
l-75 18 0 43 0 43 -75 7 c-41 3 -80 3 -87 -1 -7 -5 -139 -9 -293 -9 -233 -1
-292 -4 -350 -18 -73 -19 -193 -78 -254 -126 -20 -16 -58 -39 -86 -53 -70 -34
-215 -91 -220 -86 -8 8 82 111 145 164 89 76 184 131 288 166 48 17 98 40 112
53 14 13 43 28 65 34 87 24 361 6 462 -29 32 -11 81 -20 111 -20 50 0 53 2 50
23 -2 17 -15 26 -58 40 -139 47 -365 72 -511 57z m906 -1570 c5 0 26 17 47 37
21 20 39 35 41 32 27 -31 75 -115 69 -120 -4 -4 -49 -24 -100 -45 l-94 -37
-63 63 -63 62 20 60 20 60 57 -56 c31 -31 61 -56 66 -56z m707 -17 c3 -117 3
-118 19 -84 l17 35 20 -40 c11 -21 32 -54 46 -73 17 -23 26 -48 26 -72 0 -56
-20 -139 -33 -139 -7 0 -28 -26 -47 -57 -69 -117 -122 -183 -147 -183 -20 0
-23 5 -23 39 0 40 0 40 42 43 l42 3 18 70 c10 39 18 73 18 78 0 4 -16 7 -35 7
-40 0 -48 22 -15 40 19 10 20 21 20 216 0 186 -2 205 -17 211 -15 6 -14 8 7
14 14 4 28 7 32 8 4 1 9 -52 10 -116z m-919 -94 c23 -12 43 -23 45 -24 2 -2
-6 -21 -18 -44 l-20 -41 40 0 c38 0 41 -2 34 -22 -16 -55 -42 -74 -139 -108
-82 -28 -96 -36 -92 -51 3 -11 4 -19 2 -19 -1 0 -22 26 -45 58 -24 31 -45 59
-47 61 -2 3 -28 -3 -59 -13 -31 -10 -58 -16 -60 -13 -8 7 33 182 42 179 5 -1
47 -15 94 -31 47 -16 100 -32 118 -36 l32 -7 0 47 c0 33 -4 47 -16 52 -15 6
-15 8 2 20 24 18 38 17 87 -8z m-477 -25 c49 -20 92 -39 97 -43 4 -4 -18 -48
-50 -99 -31 -50 -59 -89 -62 -86 -4 3 -13 26 -22 52 -15 45 -18 47 -57 50
l-41 3 20 57 c11 31 17 63 14 70 -4 12 1 32 9 32 1 0 42 -16 92 -36z m624
-141 c7 -32 14 -65 17 -73 2 -8 -12 14 -31 50 -41 76 -42 80 -18 80 15 0 22
-13 32 -57z m-75 -143 c-11 -5 -27 -9 -35 -9 -9 0 -8 4 5 9 11 5 27 9 35 9 9
0 8 -4 -5 -9z m-58 -16 c-3 -3 -12 -4 -19 -1 -8 3 -5 6 6 6 11 1 17 -2 13 -5z"/>
<path d="M4085 8420 c-160 -12 -360 -54 -436 -91 -20 -10 -51 -35 -69 -55 -32
-37 -83 -134 -75 -142 2 -2 37 9 77 26 220 90 401 130 631 139 131 5 167 9
167 19 0 17 4 17 87 -1 138 -32 156 -41 176 -88 9 -24 44 -85 77 -135 l59 -92
-34 0 c-30 0 -38 7 -77 62 -50 73 -90 98 -203 130 -71 20 -102 23 -265 23
-206 0 -205 0 -433 -92 -85 -33 -122 -43 -167 -43 l-58 0 -32 -82 c-19 -46
-42 -100 -52 -121 -18 -36 -20 -38 -33 -20 -13 16 -14 14 -15 -24 l0 -43 -61
0 c-58 0 -60 -1 -70 -30 -6 -16 -15 -27 -20 -24 -5 3 -9 -11 -9 -30 0 -34 -1
-35 -42 -38 l-42 -3 -20 -62 -20 -63 -61 0 c-34 0 -65 -4 -70 -8 -6 -5 -31
-17 -58 -26 -81 -30 -158 -90 -257 -201 -148 -165 -212 -263 -224 -342 -6 -41
-5 -43 19 -43 l25 0 0 -149 0 -148 32 -9 c29 -9 33 -15 43 -64 6 -30 19 -79
29 -108 10 -29 15 -59 13 -66 -22 -56 249 -313 372 -354 48 -17 119 -15 175 4
l47 16 -61 29 c-48 22 -66 26 -85 19 -22 -8 -25 -7 -25 13 0 20 -8 25 -59 35
-35 7 -80 26 -108 45 -55 38 -133 145 -114 156 8 6 7 14 -7 32 -54 71 -112
229 -112 304 0 24 -5 34 -20 38 -24 6 -27 56 -8 118 13 46 165 213 237 261 25
17 72 53 104 80 l57 49 0 -36 c0 -47 -20 -94 -82 -188 -28 -43 -49 -79 -47
-81 10 -9 71 -37 74 -34 1 2 28 46 60 98 31 52 68 107 82 122 l26 27 48 -25
c27 -13 55 -24 62 -24 8 0 31 34 51 75 20 41 59 98 86 128 47 52 49 55 31 71
-9 9 -22 16 -27 16 -5 0 -44 -35 -87 -77 l-79 -78 6 55 c4 30 14 85 22 122 15
62 20 70 68 107 29 22 75 50 103 62 l51 21 41 -21 c27 -14 41 -28 41 -41 0
-24 -3 -24 90 0 41 11 76 20 76 20 4 0 -14 -68 -19 -77 -4 -6 -27 -16 -53 -23
-30 -9 -65 -31 -101 -63 l-55 -51 28 -14 27 -14 -81 -44 c-87 -48 -106 -74
-119 -171 l-6 -45 39 20 c55 28 167 73 171 68 2 -2 -27 -28 -64 -59 -37 -30
-79 -67 -92 -81 -19 -20 -34 -26 -67 -26 -40 0 -43 2 -55 37 l-12 37 -18 -23
c-11 -13 -19 -29 -19 -35 0 -7 -12 -23 -26 -37 -40 -37 -71 -98 -83 -164 -7
-33 -14 -71 -17 -85 -5 -23 -3 -22 34 13 43 42 165 120 170 108 1 -3 -13 -53
-32 -109 l-35 -103 52 30 c160 91 277 153 323 172 l52 22 -55 45 c-55 45 -55
45 -49 89 3 23 15 61 26 83 20 39 22 40 74 40 36 0 66 7 95 23 62 33 141 99
141 118 0 17 37 29 91 29 21 0 29 -5 29 -18 0 -12 -36 -35 -125 -80 l-125 -62
0 -68 0 -68 65 -21 65 -21 0 24 c0 22 4 24 55 24 30 0 55 -4 55 -9 0 -14 -112
-111 -128 -111 -8 0 -26 9 -41 19 l-27 19 -49 -47 c-58 -55 -203 -155 -292
-199 -69 -35 -153 -52 -263 -52 -75 0 -153 -18 -257 -58 l-53 -20 0 23 c0 91
49 205 115 269 l45 42 -35 17 c-20 9 -41 17 -47 17 -25 0 -117 -93 -142 -142
-38 -76 -35 -133 10 -224 35 -71 135 -193 176 -215 19 -10 20 -9 15 22 -3 19
-9 69 -13 112 l-6 77 46 0 c40 0 48 -4 58 -25 10 -23 8 -29 -22 -60 -19 -19
-30 -35 -26 -35 9 0 90 20 284 72 63 16 116 28 118 25 2 -2 -7 -14 -21 -27
-14 -13 -25 -27 -25 -31 0 -4 29 -17 64 -29 53 -17 69 -19 87 -9 l22 12 -22
11 c-22 12 -22 13 23 54 59 54 90 69 110 53 12 -10 26 -5 76 29 46 31 59 45
51 54 -8 9 -2 21 23 45 l33 32 25 -38 c13 -21 32 -50 42 -65 l17 -26 -55 -42
c-31 -23 -54 -46 -51 -50 3 -5 0 -12 -6 -16 -8 -5 -9 -3 -4 6 5 8 3 11 -6 8
-8 -3 -13 -10 -12 -15 1 -6 -16 -27 -38 -48 -45 -45 -49 -62 -15 -71 30 -7
197 70 249 116 64 56 126 144 133 189 4 22 12 41 18 41 12 0 108 -30 115 -36
2 -2 -9 -25 -24 -51 -76 -131 -154 -202 -307 -279 -54 -27 -88 -50 -88 -60 0
-13 -4 -12 -27 4 -87 61 -114 67 -309 64 l-120 -2 -22 -45 c-27 -56 -27 -53 1
-59 12 -2 -12 -3 -53 0 -96 5 -55 -10 68 -25 211 -26 355 -10 572 65 115 39
146 55 257 132 233 160 369 298 548 552 77 110 100 152 125 225 31 94 60 225
80 360 l12 80 -36 59 c-43 71 -90 189 -105 266 -9 44 -9 64 2 95 12 34 12 47
0 90 -34 113 -109 208 -194 245 -77 32 -227 68 -316 75 -43 3 -98 7 -123 9
-25 2 -90 0 -145 -4z m-1133 -1094 c-8 -13 -201 -263 -250 -325 l-35 -43 -18
33 c-10 19 -18 40 -19 48 0 8 55 87 122 177 l121 162 43 -21 c25 -12 40 -25
36 -31z m1230 -352 l66 -16 16 -66 c9 -37 19 -74 22 -83 4 -14 -9 -14 -118 4
-68 11 -124 21 -125 21 -1 1 7 39 19 84 16 66 24 82 37 78 9 -3 46 -13 83 -22z"/>
<path d="M3354 8098 l-20 -63 -39 58 c-40 60 -49 67 -59 42 -17 -46 -133 -200
-256 -340 -77 -88 -140 -163 -140 -166 0 -4 27 -16 60 -27 l59 -20 86 51 c70
41 106 73 196 172 101 111 249 298 249 315 0 5 -96 40 -111 40 -3 0 -14 -28
-25 -62z"/>
<path d="M5126 7687 c-3 -12 -6 -42 -6 -67 -1 -25 -5 -65 -10 -90 -6 -33 -5
-49 4 -60 11 -12 2 -50 -49 -220 l-61 -205 -37 -3 c-32 -3 -40 -9 -58 -45 -12
-23 -22 -57 -22 -77 0 -41 20 -120 31 -120 5 0 31 35 60 79 159 241 232 458
232 692 l0 99 -39 19 -39 20 -6 -22z"/>
<path d="M5986 7489 c-9 -29 -16 -77 -16 -106 0 -49 4 -59 55 -126 57 -74 125
-195 150 -268 l15 -42 -22 18 c-13 11 -56 51 -95 89 l-73 70 0 -38 0 -39 -41
56 c-25 36 -47 57 -60 57 -11 0 -23 10 -29 24 -8 22 -59 66 -75 66 -4 0 -5
-24 -2 -52 9 -76 138 -333 177 -353 43 -22 72 -66 138 -210 43 -92 57 -132 49
-138 -13 -9 16 -33 65 -54 31 -14 34 -9 13 27 -8 14 -14 35 -15 48 0 12 -22
68 -49 125 -51 105 -123 278 -118 283 1 2 36 -55 77 -127 47 -82 79 -129 89
-128 9 0 39 9 66 18 48 17 50 20 49 54 -1 24 -15 56 -43 98 -37 55 -42 70 -40
109 3 37 -5 61 -43 135 -61 120 -112 252 -141 361 -20 73 -28 90 -45 92 -17 3
-23 -5 -36 -49z"/>
<path d="M5506 7375 c-19 -26 -42 -70 -52 -98 -9 -29 -45 -122 -79 -207 -65
-161 -96 -256 -115 -351 -8 -43 -16 -58 -30 -62 -18 -5 -20 -15 -20 -123 0
-107 -2 -120 -22 -141 -18 -19 -23 -41 -30 -140 -5 -65 -15 -144 -23 -176 -8
-33 -13 -62 -10 -67 5 -8 -88 -161 -135 -220 -37 -47 -41 -116 -10 -168 11
-18 20 -34 20 -36 0 -1 -27 -11 -60 -21 -46 -14 -60 -23 -60 -37 0 -30 33
-219 37 -214 2 2 12 32 22 67 l18 64 11 -40 c6 -22 15 -56 19 -75 8 -32 12
-35 51 -38 38 -3 42 -6 47 -35 11 -67 36 -279 33 -282 -2 -2 -30 19 -63 46
-33 28 -77 64 -97 80 l-38 31 0 -71 0 -71 78 -78 c118 -119 150 -140 275 -181
l67 -23 0 -39 c0 -44 1 -45 60 -24 23 8 46 15 51 15 5 0 9 -148 9 -330 l0
-330 40 0 40 0 0 -40 0 -40 65 0 c65 0 65 0 65 -29 0 -27 -6 -31 -77 -60 -89
-36 -93 -36 -93 -16 0 12 -14 15 -65 15 -59 0 -72 -4 -118 -35 -28 -19 -55
-35 -59 -35 -19 0 -5 54 32 128 60 120 81 211 87 385 l6 147 -26 0 c-22 0 -27
-6 -33 -37 -4 -21 -2 -49 4 -65 9 -24 6 -48 -18 -131 -28 -98 -66 -204 -87
-242 -14 -25 -63 -30 -63 -6 0 9 -9 34 -20 56 -18 36 -20 59 -20 292 0 246 -1
253 -20 253 -19 0 -20 -7 -20 -192 1 -118 10 -287 23 -435 13 -134 21 -243 19
-243 -2 0 -31 19 -64 41 -53 36 -70 42 -127 46 -40 3 -81 0 -106 -9 -39 -13
-47 -26 -71 -107 -4 -11 -8 -11 -22 3 -24 21 -26 21 -75 -12 -23 -16 -48 -32
-55 -36 -23 -14 24 69 69 120 23 26 59 72 81 101 40 52 41 55 34 114 -5 55 -4
61 13 66 45 12 96 200 111 410 13 183 14 173 -13 173 -22 0 -28 -14 -82 -197
-32 -109 -62 -202 -66 -207 -4 -4 -17 2 -29 14 -39 39 -50 25 -101 -135 -57
-179 -71 -234 -77 -297 -4 -47 -5 -48 -37 -48 -18 0 -40 -3 -49 -6 -9 -3 -16
-1 -16 5 0 7 -16 27 -35 46 l-34 35 -33 -20 c-18 -11 -36 -20 -39 -20 -3 0 3
47 15 105 11 60 25 105 31 105 8 0 15 38 21 103 l9 102 45 5 c39 4 47 10 67
45 43 75 82 192 92 274 19 146 -16 362 -59 376 -10 3 -24 24 -32 46 -7 23 -17
41 -23 41 -5 -1 -19 -36 -30 -79 l-20 -78 -42 -3 -43 -3 0 -187 c0 -198 4
-232 26 -232 11 0 14 -22 14 -103 l0 -103 -35 -17 c-20 -9 -37 -17 -39 -17 -2
0 -22 45 -45 101 l-42 101 21 23 c40 42 60 144 60 297 l0 138 -39 19 -39 20
-5 -37 c-4 -20 -11 -87 -18 -148 -12 -108 -12 -111 -35 -106 -21 4 -24 0 -24
-24 0 -16 -7 -38 -16 -49 -13 -18 -14 -13 -9 50 12 137 20 275 17 275 -2 0
-23 -13 -47 -30 -24 -16 -46 -30 -49 -30 -3 0 0 14 6 30 10 29 7 34 -39 83
-28 29 -55 62 -61 74 -9 16 -25 23 -67 28 -30 4 -57 11 -60 15 -2 4 13 15 35
25 35 16 39 22 42 58 l3 41 79 19 c88 22 86 28 -17 52 l-65 15 -78 -37 c-98
-47 -173 -52 -415 -29 -233 23 -219 18 -219 66 l0 40 -52 0 c-30 0 -71 -9 -93
-19 -39 -17 -190 -136 -190 -150 0 -3 8 -34 19 -68 l19 -61 51 15 c28 8 73 26
99 40 27 13 51 23 53 21 2 -2 -3 -28 -11 -58 -8 -30 -15 -76 -15 -103 0 -46
-1 -47 -25 -41 -30 7 -30 11 -5 -60 10 -31 33 -145 51 -254 18 -108 37 -204
44 -212 7 -8 15 -31 19 -52 4 -20 13 -39 21 -42 13 -4 15 -37 15 -191 0 -175
1 -185 19 -185 21 0 24 -12 37 -139 5 -48 3 -65 -7 -72 -19 -11 -15 -218 6
-341 20 -123 81 -254 123 -269 22 -7 32 -20 41 -49 14 -46 53 -80 92 -80 53 0
59 -7 59 -71 0 -53 -2 -59 -21 -59 -22 0 -21 -17 7 -72 8 -15 14 -34 14 -43 0
-8 4 -15 8 -15 4 0 25 -15 45 -34 31 -28 134 -86 153 -86 4 0 3 7 0 16 -8 22
25 10 84 -30 52 -34 52 -35 95 -124 30 -63 30 -63 65 -56 19 3 46 7 60 8 14 0
28 5 31 10 4 4 44 -4 90 -19 60 -19 95 -38 122 -63 34 -34 38 -35 54 -20 14
15 19 15 45 2 24 -12 28 -21 28 -54 l0 -40 45 0 45 0 0 -45 c0 -42 -2 -46 -40
-65 -21 -11 -44 -20 -49 -20 -5 0 -11 19 -13 42 -3 40 -4 42 -57 60 -30 10
-55 17 -56 15 -9 -11 -35 -109 -31 -115 3 -5 26 -15 50 -22 37 -10 51 -21 75
-59 59 -92 111 -209 164 -366 51 -151 106 -274 141 -320 14 -19 15 -14 16 61
0 103 -8 142 -30 149 -14 4 -21 27 -33 103 -12 78 -22 109 -51 157 -20 33 -44
84 -53 114 -28 97 -4 221 42 221 6 0 29 -22 51 -49 l39 -49 15 51 16 52 42 -3
42 -4 0 101 c0 60 4 101 10 101 16 0 70 -80 113 -168 22 -46 50 -90 62 -98 13
-8 41 -40 63 -72 22 -31 62 -77 88 -102 l49 -45 -46 -3 c-43 -3 -48 -6 -64
-42 -10 -22 -22 -40 -27 -40 -12 0 -90 54 -134 92 -33 30 -34 31 -34 112 l0
82 -35 17 c-20 9 -38 17 -40 17 -3 0 -5 -27 -5 -60 l0 -60 -40 0 -40 0 0 -40
c0 -40 0 -40 40 -40 47 0 54 -11 93 -135 31 -102 42 -195 21 -195 -17 0 -17
-9 -1 -78 l13 -53 31 33 c45 47 53 76 53 194 0 57 3 104 7 104 3 0 30 -8 60
-17 46 -14 53 -20 53 -42 0 -14 11 -71 24 -126 13 -55 32 -137 41 -182 19 -85
39 -112 89 -120 14 -3 17 1 13 18 -4 14 4 36 20 60 l26 39 53 -71 c67 -90 68
-91 48 -43 -29 71 -52 109 -78 133 l-26 24 0 178 c0 152 -2 178 -16 183 -23 9
-22 10 -45 -35 l-21 -41 -39 38 c-21 21 -39 43 -39 49 0 5 26 27 59 47 49 31
61 44 74 82 9 25 14 46 11 46 -3 0 -27 -12 -55 -26 -28 -14 -52 -24 -53 -22
-2 2 -12 50 -23 107 l-21 103 44 20 c28 12 61 18 87 16 l42 -3 18 -65 c10 -36
16 -76 13 -90 -4 -20 6 -36 46 -76 l50 -52 -41 -60 c-23 -34 -41 -65 -41 -69
0 -5 29 -38 65 -73 36 -35 65 -60 65 -55 0 6 -11 53 -25 105 -13 52 -23 95
-21 97 1 1 37 -33 80 -76 l79 -79 43 20 42 21 -41 84 -41 83 -43 0 -43 0 0 44
c0 36 -4 46 -20 51 -11 3 -20 12 -20 20 0 10 15 9 73 -6 39 -10 77 -19 82 -19
6 0 26 30 44 67 18 36 55 102 82 144 l50 78 45 -22 c39 -18 44 -25 40 -47 -13
-64 -17 -124 -8 -111 8 11 10 11 14 0 3 -8 11 6 17 31 7 25 14 50 15 55 2 6
57 19 122 29 66 11 122 23 125 29 4 5 15 -5 25 -23 l19 -31 5 132 5 133 55 14
c30 7 56 15 58 16 1 2 -7 43 -19 92 -13 57 -21 123 -21 184 l-1 94 34 29 c19
15 70 46 115 68 74 37 84 39 137 33 l57 -7 0 -163 c0 -151 -1 -164 -18 -164
-15 0 -21 -16 -36 -92 -9 -50 -24 -105 -32 -120 -9 -18 -13 -41 -9 -57 5 -26
2 -29 -62 -59 -57 -27 -70 -29 -82 -18 -11 12 -23 11 -75 -6 -33 -12 -63 -22
-64 -24 -2 -1 6 -48 17 -105 12 -56 21 -103 21 -104 0 -2 24 2 53 9 67 16 168
61 235 105 50 33 52 35 32 46 -19 10 -16 13 39 30 l60 18 22 64 c19 58 26 67
79 103 33 22 61 40 64 40 3 0 12 -24 21 -53 12 -42 13 -68 5 -132 -8 -64 -7
-82 4 -93 11 -12 22 -6 68 40 74 72 134 151 169 219 27 55 31 58 71 61 38 3
43 6 50 36 6 20 5 38 0 45 -6 8 -3 49 9 112 13 71 17 122 13 176 -7 85 8 173
33 201 11 12 30 18 59 18 l43 0 12 -57 c29 -135 12 -252 -58 -406 -29 -62 -39
-76 -54 -72 -15 5 -20 -7 -37 -82 -11 -48 -23 -107 -26 -130 -6 -40 -5 -43 16
-42 13 0 50 8 83 17 58 17 60 18 78 67 10 28 20 62 22 78 5 41 37 86 107 153
65 62 93 76 255 124 l61 18 7 -21 c6 -20 8 -18 18 15 15 45 76 101 127 117 20
6 71 11 111 12 l74 1 -50 15 c-82 24 -83 25 -33 41 44 14 49 14 66 -1 11 -10
35 -17 58 -16 51 0 81 36 95 115 12 63 55 138 75 130 10 -4 11 1 3 21 -6 17
-6 37 2 62 18 61 67 154 97 187 28 30 123 74 162 74 19 0 20 8 20 231 l0 230
-22 -3 c-21 -3 -25 -16 -58 -193 l-35 -190 -8 95 c-5 52 -6 187 -3 300 5 225
25 341 65 384 19 20 21 34 21 124 0 56 4 102 9 102 5 0 12 26 16 58 3 31 8 78
11 104 l6 47 62 21 c56 18 64 25 83 63 l21 43 102 19 c94 17 102 21 117 48
l15 30 -36 -21 c-26 -15 -69 -25 -145 -34 -124 -13 -236 -3 -396 37 -49 13
-111 26 -136 29 -26 4 -76 24 -117 49 -63 37 -72 46 -72 72 -1 26 -16 42 -119
125 -133 106 -199 139 -331 166 -172 34 -330 2 -480 -98 -57 -38 -128 -113
-117 -124 9 -9 90 31 110 54 l19 21 42 -21 43 -20 65 31 c36 17 87 35 114 40
63 12 312 23 342 15 22 -6 21 -10 -34 -65 -32 -33 -62 -59 -66 -59 -4 0 -8 16
-8 36 l0 36 -37 -7 c-21 -3 -69 -17 -106 -30 -63 -21 -72 -22 -107 -10 l-39
14 -58 -79 c-32 -44 -61 -79 -65 -80 -3 0 -9 19 -13 43 -8 48 -26 107 -35 107
-3 0 -22 -27 -43 -60 l-39 -59 21 -63 c12 -35 30 -69 41 -76 32 -20 23 -32
-22 -32 -36 0 -48 -6 -83 -40 l-41 -40 -48 115 c-27 63 -54 119 -60 125 -9 7
0 34 36 107 47 94 91 253 75 270 -4 3 -43 -2 -87 -12 l-80 -18 0 -56 c0 -31
-9 -96 -20 -145 -11 -50 -20 -91 -20 -93 0 -1 18 -12 39 -23 l40 -20 -30 -57
c-35 -68 -59 -174 -59 -260 0 -55 3 -63 27 -81 l27 -19 -22 -162 c-21 -155
-22 -163 -5 -186 10 -13 23 -23 29 -20 15 5 41 -56 48 -113 4 -24 29 -96 56
-162 28 -65 50 -121 50 -124 0 -3 -12 -1 -26 4 -53 21 -57 16 -51 -60 3 -39
20 -122 38 -185 31 -112 33 -115 61 -115 l28 0 0 -168 0 -168 -52 -16 c-102
-32 -112 -32 -152 12 -23 26 -43 64 -58 112 -20 64 -23 92 -22 238 0 108 6
191 16 240 9 41 14 77 11 80 -3 3 -12 -5 -22 -16 -13 -16 -28 -21 -60 -20
l-43 1 7 105 c9 118 9 250 0 258 -3 3 -23 -11 -44 -32 l-40 -39 -9 39 c-6 22
-18 75 -27 119 -9 44 -23 108 -31 142 -8 36 -14 116 -14 193 l0 131 -62 62
-63 62 -3 -53 c-2 -30 4 -78 14 -110 19 -65 21 -153 5 -196 -9 -22 -8 -64 4
-175 9 -80 20 -150 25 -155 6 -5 15 -4 24 4 24 19 30 -9 22 -107 -8 -94 4
-123 51 -123 12 0 23 -5 23 -11 0 -25 -32 -149 -40 -154 -5 -3 -50 20 -101 51
-51 31 -107 58 -124 61 -29 5 -35 1 -61 -36 -54 -76 -57 -66 -52 184 2 124 0
225 -4 225 -5 0 -32 -16 -60 -35 -28 -19 -54 -32 -58 -30 -22 13 -92 351 -83
397 4 23 1 29 -23 38 -25 10 -31 7 -66 -28 l-39 -38 11 -127 c11 -127 28 -201
90 -387 39 -116 56 -141 126 -185 30 -20 57 -42 60 -49 4 -12 -17 -68 -32 -85
-2 -2 -60 33 -128 78 l-124 82 -41 -20 c-50 -26 -54 -26 -46 -1 9 28 2 26 -65
-20 l-58 -39 -16 24 c-24 36 -11 74 66 210 37 66 68 123 68 128 0 4 -13 1 -30
-8 -53 -27 -40 -60 -116 305 -24 118 -46 225 -49 238 -4 18 -12 22 -41 22
l-37 0 7 49 c6 48 -7 101 -26 101 -5 0 -23 -7 -39 -16 -17 -8 -33 -14 -35 -11
-2 2 3 20 11 40 19 45 19 51 0 43 -12 -4 -15 4 -15 39 l0 45 -40 0 c-22 0 -40
1 -40 3 0 11 62 182 83 230 22 48 30 57 52 57 21 0 30 8 44 41 24 52 24 51 71
-179 20 -100 40 -185 43 -188 3 -3 23 4 46 16 l41 20 0 145 c0 80 2 145 5 145
2 0 20 -7 39 -17 l35 -16 -4 -65 c-2 -36 -9 -68 -15 -72 -6 -4 -13 -23 -17
-43 l-6 -37 42 0 41 0 -20 -41 c-12 -23 -20 -42 -18 -44 5 -4 101 -35 109 -35
5 0 9 30 11 68 l3 67 14 -57 c22 -89 19 -88 110 -43 l81 39 0 48 c0 36 7 58
28 87 15 22 30 40 33 41 9 0 29 -74 29 -109 0 -17 -11 -59 -25 -93 -21 -52
-34 -69 -74 -96 -66 -46 -106 -53 -243 -46 -68 4 -118 3 -118 -2 1 -5 9 -25
19 -44 18 -33 25 -36 162 -75 l144 -42 3 26 c2 14 16 40 32 56 15 17 47 62 71
100 70 112 103 155 121 155 9 0 19 8 22 18 15 48 37 199 43 295 l6 107 56 0
56 1 -33 18 -34 17 -2 130 c-3 122 -5 134 -38 214 -20 47 -49 108 -65 135 -16
28 -29 53 -29 57 1 4 -35 45 -79 90 l-80 83 -3 -144 c-1 -79 1 -148 6 -155 5
-6 12 -40 16 -76 4 -36 9 -85 13 -110 12 -90 -6 -31 -51 165 -51 227 -97 391
-154 550 -34 97 -41 110 -62 110 -21 0 -36 29 -145 273 -107 240 -169 401
-189 494 -3 15 1 47 9 70 24 70 22 74 -52 92 -38 9 -76 19 -85 22 -11 3 -28
-10 -52 -41z m-216 -2210 l0 -125 66 0 65 0 -3 -42 -3 -42 -90 -17 c-49 -10
-96 -18 -102 -18 -10 -1 -13 42 -13 184 l0 185 40 0 40 0 0 -125z m670 -69 c0
-3 -4 -8 -10 -11 -5 -3 -10 -1 -10 4 0 6 5 11 10 11 6 0 10 -2 10 -4z m-2144
-197 c49 -23 75 -60 104 -145 20 -57 47 -240 37 -250 -11 -11 -140 176 -187
271 -68 138 -69 145 -29 145 18 0 52 -9 75 -21z m3 -323 c32 -54 82 -187 94
-253 l6 -32 -63 -3 -63 -3 19 -81 c18 -79 19 -81 63 -102 l44 -21 33 51 c18
28 36 56 40 61 11 17 37 -11 44 -48 12 -65 -69 -290 -130 -362 l-28 -33 -104
0 -104 0 0 43 c0 42 2 45 40 62 22 10 40 21 40 24 0 12 -50 485 -66 619 -8 72
-24 167 -34 209 -11 42 -20 79 -20 82 1 15 159 -163 189 -213z m4011 200 c0
-25 -70 -581 -76 -606 -6 -23 -8 -20 -24 25 -10 28 -19 44 -19 37 -1 -7 -10
-123 -22 -258 -11 -135 -19 -251 -16 -257 3 -7 30 -21 61 -30 39 -13 56 -23
56 -35 0 -42 -34 -298 -41 -306 -10 -11 -55 24 -95 74 l-31 39 13 88 c7 48 16
104 20 124 5 33 2 41 -32 79 -29 32 -39 38 -44 26 -4 -12 -15 -9 -60 19 -41
26 -66 35 -101 35 l-46 0 -12 83 c-15 97 -43 184 -78 245 -14 23 -27 42 -28
40 -2 -2 5 -43 16 -93 10 -49 19 -104 19 -122 0 -33 -28 -103 -41 -103 -13 0
-69 71 -93 118 -32 63 -76 199 -76 235 0 18 9 36 22 47 20 16 21 21 10 45 -11
23 -10 30 1 44 8 9 22 74 33 154 11 85 22 136 28 134 6 -2 39 -45 73 -97 l63
-93 -7 49 c-5 27 -8 72 -8 99 l0 50 40 0 40 0 5 -58 5 -57 60 44 c33 25 60 53
60 62 0 12 17 22 60 34 72 20 133 50 159 79 23 25 106 31 106 7z m-4399 -273
c17 -95 17 -272 1 -330 -12 -41 -14 -43 -52 -43 -22 0 -40 2 -40 4 0 2 9 48
20 101 11 54 19 99 18 100 -2 2 -22 12 -45 24 l-43 21 0 62 c0 59 1 60 18 45
10 -10 22 -17 25 -17 4 0 7 34 7 75 l0 75 38 -19 c38 -19 39 -22 53 -98z
m4569 -60 c0 -10 -7 -59 -15 -110 -18 -111 -60 -231 -111 -314 -43 -71 -48
-68 -65 41 -11 74 -8 140 13 258 l11 62 44 0 43 0 0 40 0 40 40 0 c31 0 40 -4
40 -17z m-3758 -316 c0 -97 -20 -159 -52 -167 -23 -5 -26 -14 -39 -92 l-13
-86 -65 -16 c-36 -9 -68 -15 -71 -12 -9 10 29 230 52 297 18 50 34 76 69 109
44 40 47 45 47 95 0 28 3 55 8 59 4 4 20 -20 36 -54 23 -50 28 -75 28 -133z
m1262 -429 c12 -175 7 -469 -9 -532 -17 -66 -106 -256 -162 -349 -21 -34 -38
-65 -38 -69 0 -4 -10 -15 -22 -23 -20 -14 -23 -14 -32 3 -6 11 -19 52 -30 92
-20 70 -20 77 -5 164 10 57 14 120 11 168 -5 75 -4 77 15 67 19 -10 20 -7 17
150 -3 156 -2 162 20 185 13 14 20 29 16 35 -9 16 64 148 98 177 20 17 41 24
71 24 l43 0 7 -92z m2459 50 c35 -44 49 -133 40 -254 l-6 -81 -54 -17 c-30
-10 -58 -15 -61 -11 -4 4 -7 87 -7 185 0 162 2 180 19 199 24 27 32 24 69 -21z
m-1952 -29 c99 -63 160 -158 185 -286 16 -88 19 -291 3 -346 -9 -34 -12 -37
-23 -22 -10 14 -15 1 -31 -84 l-18 -101 -44 0 -43 0 0 -44 0 -44 -102 -4 c-57
-2 -104 -3 -106 -3 -1 1 -10 40 -19 86 -9 46 -20 86 -24 89 -15 10 -29 96 -29
181 0 101 8 149 24 149 7 0 31 19 54 43 l42 43 -45 22 -45 22 0 80 0 80 44 0
43 0 11 68 c8 47 18 72 33 85 28 23 34 22 90 -14z m-1127 -51 c4 -23 9 -76 13
-118 3 -41 9 -104 13 -140 4 -36 4 -67 0 -70 -4 -3 -12 -36 -18 -74 -6 -37
-13 -70 -16 -73 -2 -3 -13 0 -23 5 -17 10 -24 -5 -82 -179 -51 -156 -66 -189
-81 -189 -27 0 -47 33 -76 125 -21 66 -26 100 -26 190 0 208 36 307 177 483
80 99 108 108 119 40z m1741 -128 c22 -88 42 -160 46 -160 4 0 10 7 13 17 6
15 7 15 19 -1 11 -15 17 -13 65 20 30 19 56 33 59 30 6 -5 -23 -337 -33 -383
-5 -26 -66 -60 -155 -88 l-56 -18 -72 33 c-39 18 -76 38 -81 45 -7 8 -4 30 10
70 24 70 24 65 0 65 -19 0 -20 7 -22 128 -4 159 1 287 10 312 6 17 119 85 147
89 6 0 28 -71 50 -159z m-2205 12 c0 -7 4 -11 9 -8 4 3 23 -6 41 -19 l34 -25
-41 0 -40 0 -6 -157 c-5 -154 -20 -247 -63 -400 l-17 -63 -44 0 c-37 0 -45 4
-53 26 -15 37 -13 42 18 46 25 3 27 7 30 49 l3 46 -41 7 -40 6 0 136 c0 118 2
139 19 160 18 23 32 70 46 154 3 19 9 42 15 50 8 12 11 12 28 -3 18 -16 20
-16 41 7 20 21 26 23 42 13 11 -7 19 -18 19 -25z m-420 -22 c0 -5 18 -14 40
-20 47 -13 46 -7 30 -216 -16 -207 -17 -213 -48 -220 -15 -3 -42 -12 -61 -20
-40 -18 -45 -13 -95 87 l-32 66 13 89 c7 49 25 124 39 167 l27 77 44 0 c24 0
43 -4 43 -10z m3490 -16 c0 -14 5 -35 12 -47 12 -22 37 -198 38 -268 0 -31 -4
-37 -35 -52 -20 -9 -40 -17 -44 -17 -14 0 -68 159 -80 237 -6 39 -11 95 -11
122 l0 51 60 0 c58 0 60 -1 60 -26z m800 -204 c0 -48 -33 -179 -59 -235 -29
-61 -89 -150 -96 -143 -3 2 4 55 15 118 13 75 16 118 10 125 -14 16 5 113 27
137 11 12 30 18 60 18 37 0 43 -3 43 -20z m-293 -250 l3 -190 -61 0 -62 0 7
66 c19 189 57 314 94 314 15 0 17 -18 19 -190z m-4360 -37 c52 -74 67 -105 92
-183 20 -63 66 -328 59 -335 -2 -2 -18 7 -35 21 -24 18 -38 44 -58 104 -25 74
-29 80 -54 80 -25 0 -28 5 -44 64 -18 68 -25 306 -8 306 4 0 26 -26 48 -57z
m1944 -198 c-2 -137 -6 -254 -10 -260 -3 -5 -17 -10 -31 -10 -35 0 -42 -27
-81 -307 -35 -258 -45 -279 -68 -149 -11 61 -16 71 -41 81 -23 10 -31 22 -44
75 -9 36 -32 108 -52 162 -20 54 -38 105 -41 114 -3 12 8 18 49 27 29 7 80 26
112 42 32 17 65 30 72 30 20 0 23 9 44 161 12 79 28 174 36 212 8 37 14 71 14
73 0 3 10 4 23 2 l22 -3 -4 -250z m2156 238 c29 -9 53 -20 53 -25 0 -12 -48
-216 -65 -275 -15 -52 -16 -53 -54 -53 -37 0 -39 2 -45 38 -3 20 -6 92 -6 158
0 108 2 124 21 148 24 31 26 31 96 9z m-3830 -231 c42 -63 61 -103 88 -183 24
-70 52 -216 43 -225 -12 -11 -131 132 -163 197 -26 52 -85 228 -85 257 0 1 19
2 43 2 39 0 44 -3 74 -48z m1093 18 c0 -16 -2 -30 -4 -30 -2 0 -6 14 -8 30 -3
17 -1 30 4 30 4 0 8 -13 8 -30z m2080 -6 c0 -56 -39 -231 -65 -293 -27 -65
-86 -171 -96 -171 -11 0 -29 77 -29 130 0 45 2 51 15 40 13 -11 15 -1 15 82 0
158 44 248 122 248 37 0 38 -1 38 -36z m-2098 -69 c51 -51 56 -60 71 -132 9
-43 19 -140 22 -215 6 -115 4 -145 -10 -190 -10 -29 -19 -54 -20 -56 -2 -2
-22 9 -44 24 -40 26 -41 29 -41 80 l0 54 -40 0 -40 0 0 40 c0 22 -4 40 -8 40
-8 0 -42 246 -42 300 0 22 72 110 90 110 4 0 31 -25 62 -55z m-341 -182 c47
-103 54 -128 57 -194 7 -135 -30 -154 -109 -56 -59 73 -107 172 -124 256 -14
63 -13 66 7 88 16 18 33 23 68 23 l47 0 54 -117z m1439 90 c0 -17 -32 -234
-45 -310 -4 -20 -12 -33 -20 -33 -12 0 -15 -18 -15 -90 l0 -91 -82 3 -83 3
-32 170 c-17 94 -34 189 -38 213 l-6 42 53 -6 c47 -6 61 -3 114 24 32 17 77
44 99 60 47 36 55 38 55 15z"/>
<path d="M7334 4442 c3 -9 26 -105 50 -212 69 -300 69 -302 83 -307 19 -7 113
27 113 41 0 7 -31 103 -69 212 -65 187 -72 201 -115 241 -47 45 -71 55 -62 25z"/>
<path d="M10465 7075 c-83 -100 -162 -228 -192 -308 -18 -51 -19 -57 -4 -53 9
3 46 12 82 21 l66 17 40 141 40 142 41 3 c23 2 42 6 42 9 0 15 -34 113 -39
113 -3 -1 -37 -39 -76 -85z"/>
<path d="M1000 7038 l0 -43 83 -44 c45 -24 119 -68 165 -98 76 -50 93 -73 56
-73 -8 0 -14 -3 -14 -8 0 -7 152 -102 164 -102 3 0 6 28 6 63 l-1 62 -57 41
c-53 39 -388 244 -398 244 -2 0 -4 -19 -4 -42z"/>
<path d="M343 6938 c3 -9 11 -35 18 -58 15 -50 12 -52 -72 -70 -33 -7 -59 -17
-59 -21 0 -5 4 -9 10 -9 5 0 51 -19 102 -41 227 -103 349 -211 389 -346 13
-45 23 -48 33 -9 3 14 11 37 16 52 l11 27 43 -42 43 -42 18 40 18 40 -51 63
c-98 123 -221 230 -395 346 -135 90 -132 88 -124 70z"/>
<path d="M6583 6479 c3 -12 -4 -41 -16 -65 l-21 -44 -100 0 -100 0 29 -30 c37
-38 89 -58 198 -74 l87 -13 0 124 0 123 -41 0 c-37 0 -41 -2 -36 -21z"/>
<path d="M13248 6356 c-114 -186 -184 -314 -219 -405 l-29 -75 22 -23 22 -23
-67 -128 c-69 -134 -133 -306 -143 -388 -8 -67 -89 -347 -120 -414 -14 -30
-40 -71 -59 -90 -19 -20 -49 -73 -70 -124 -20 -49 -47 -111 -61 -137 -23 -47
-26 -49 -67 -49 -38 0 -50 -7 -132 -81 -112 -100 -217 -166 -345 -215 l-100
-39 0 -42 0 -42 -42 19 c-54 24 -122 25 -472 5 -392 -22 -406 -24 -406 -44 0
-15 29 -19 288 -35 158 -9 298 -19 312 -22 23 -4 25 -8 22 -47 -3 -38 -9 -46
-43 -68 -21 -13 -39 -27 -39 -31 0 -4 -9 -10 -20 -13 -16 -5 -20 -15 -20 -50
l0 -43 -77 -7 c-43 -4 -123 -14 -178 -22 -76 -12 -192 -16 -485 -17 l-385 -1
-98 -28 c-54 -15 -128 -41 -163 -58 -36 -16 -100 -43 -142 -58 -344 -127 -435
-176 -610 -329 -41 -36 -79 -61 -87 -58 -18 7 -37 -17 -29 -38 4 -11 1 -16
-13 -16 -11 0 -28 -9 -38 -20 -18 -20 -45 -27 -45 -12 0 9 -201 10 -215 0 -6
-3 -12 -39 -14 -79 -2 -67 -23 -129 -42 -129 -4 0 -10 -17 -14 -37 -15 -84
-116 -169 -260 -220 l-90 -32 118 0 117 -1 0 -56 0 -56 123 115 c139 132 145
132 106 -10 -22 -82 -22 -84 -3 -98 19 -14 18 -15 -2 -21 -12 -3 -30 -25 -43
-50 -11 -25 -56 -91 -100 -147 -103 -135 -151 -207 -195 -295 -20 -40 -53 -89
-74 -107 -101 -94 -329 -258 -464 -334 l-57 -32 -6 44 c-6 38 -12 47 -41 61
-34 16 -35 16 -44 -10 -6 -14 -10 -30 -10 -35 0 -19 -53 -59 -78 -59 -14 0
-36 9 -48 21 l-22 21 -26 -28 c-14 -16 -43 -51 -64 -79 -138 -179 -408 -432
-588 -553 -53 -35 -82 -67 -71 -78 1 -2 29 10 60 26 32 16 78 32 102 36 50 7
55 15 23 36 -21 14 -17 18 103 108 125 95 254 217 387 368 54 60 80 82 98 82
13 0 24 -2 24 -4 0 -2 -20 -39 -45 -81 -35 -59 -43 -80 -35 -91 9 -10 1 -29
-37 -83 -26 -39 -53 -72 -58 -73 -6 -2 -92 -90 -190 -196 -162 -173 -183 -192
-206 -187 -20 5 -38 -3 -75 -31 -93 -71 -233 -206 -227 -220 3 -9 -2 -14 -13
-14 -31 0 -244 -62 -244 -71 0 -14 24 -24 74 -29 l50 -5 -75 -56 c-41 -30 -79
-58 -86 -62 -7 -4 -39 -1 -72 8 -79 20 -100 19 -152 -8 -36 -18 -54 -21 -100
-16 -59 6 -152 48 -226 102 -35 24 -42 34 -37 53 5 19 -2 28 -47 57 l-52 33
-86 -13 c-110 -16 -111 -16 -111 3 0 31 -121 0 -435 -111 -138 -50 -276 -90
-379 -110 -21 -5 -27 -10 -23 -25 6 -25 -10 -30 -101 -30 -104 0 -203 23 -287
65 -84 42 -104 58 -139 113 -23 37 -25 47 -17 83 7 30 6 50 -5 76 -9 19 -14
37 -11 39 2 2 21 -20 42 -48 73 -95 258 -162 434 -156 81 3 86 4 89 26 3 20
-1 22 -45 22 -102 0 -253 57 -330 125 -37 32 -43 42 -43 77 0 39 -1 40 -18 25
-10 -10 -21 -17 -24 -17 -9 0 -176 262 -193 303 -8 20 -15 63 -15 95 0 58 -1
60 -32 73 -18 7 -84 62 -146 123 -100 98 -120 113 -175 132 -62 21 -62 21 -67
65 -6 49 22 28 -250 187 -60 35 -127 84 -157 114 l-52 53 -25 130 c-38 195
-43 207 -120 286 l-68 70 4 120 4 121 -37 19 c-21 10 -40 23 -43 28 -6 9 -14
86 -36 326 -6 66 -30 234 -52 373 -36 219 -43 252 -59 252 -20 0 -22 -5 -45
-122 l-17 -88 -43 0 -43 0 -3 128 -3 127 -32 2 c-45 2 -127 49 -174 101 -78
84 -204 392 -161 392 29 0 220 -235 265 -327 12 -24 25 -43 29 -43 14 0 9 124
-8 181 -9 30 -36 102 -61 162 -43 100 -48 107 -74 107 -27 0 -29 3 -29 39 0
45 -8 53 -76 75 l-51 17 -22 72 c-33 113 -42 173 -46 298 -2 93 -7 124 -24
157 -34 66 -117 113 -181 103 l-35 -6 32 -14 c18 -7 53 -26 77 -42 42 -26 47
-34 71 -111 23 -75 57 -276 48 -287 -2 -3 -50 41 -106 97 -101 101 -103 102
-121 83 -19 -21 -17 -40 15 -103 17 -33 24 -38 55 -38 l35 0 -7 -52 c-4 -29
-8 -55 -10 -56 -1 -2 9 -33 22 -70 19 -50 27 -97 34 -193 4 -70 14 -137 20
-150 7 -13 54 -80 105 -149 50 -69 119 -166 154 -216 53 -79 67 -93 96 -98 22
-4 44 -19 63 -42 38 -46 107 -163 108 -184 1 -9 13 -52 27 -96 45 -136 76
-283 92 -448 17 -167 41 -278 74 -349 35 -73 101 -172 121 -181 14 -6 18 -15
14 -30 -4 -17 3 -24 39 -39 l43 -17 12 -136 c15 -172 33 -217 134 -321 82 -84
174 -149 269 -190 93 -40 127 -63 139 -94 7 -15 17 -30 24 -32 7 -3 22 -31 34
-64 33 -90 57 -122 108 -144 24 -11 42 -24 39 -29 -7 -11 19 -103 52 -187 21
-53 32 -67 74 -92 47 -30 89 -86 69 -93 -6 -2 3 -28 20 -59 16 -31 48 -104 70
-163 46 -125 105 -217 192 -302 78 -76 130 -94 265 -94 82 0 108 5 203 37 93
31 115 35 147 27 44 -11 84 2 293 91 209 89 258 100 445 99 194 -1 213 -6 377
-105 99 -60 131 -74 191 -85 159 -28 241 -12 437 86 256 129 383 212 345 226
-10 4 -15 20 -15 43 0 42 13 56 120 136 36 27 74 58 85 70 11 11 58 43 104 70
117 70 187 138 271 261 184 270 298 372 558 502 96 48 191 96 212 106 29 15
41 29 49 58 8 26 19 39 34 43 12 2 48 9 79 15 124 24 309 138 510 314 48 42
90 76 93 76 16 0 3 -76 -17 -97 l-21 -23 36 -15 c20 -8 40 -15 44 -15 9 0 87
118 196 295 46 73 93 131 177 216 213 213 420 321 723 375 50 9 98 18 105 20
7 2 12 20 12 44 l0 41 -166 -3 -166 -3 51 23 c61 28 136 36 484 53 l257 12 0
43 c0 39 -3 44 -48 72 -82 53 -113 62 -221 62 -92 0 -387 -32 -456 -49 -24 -6
-31 -15 -38 -44 -9 -36 -11 -37 -52 -37 -99 0 -264 -58 -397 -140 -26 -17 -55
-30 -63 -30 -9 0 -18 -7 -21 -15 -4 -8 -32 -42 -64 -74 -32 -33 -78 -88 -104
-124 -25 -36 -62 -77 -81 -91 -42 -32 -70 -84 -89 -163 -7 -32 -26 -98 -42
-148 -27 -84 -33 -95 -100 -161 -78 -78 -181 -154 -289 -214 -89 -49 -241
-114 -228 -98 6 7 41 51 78 98 85 105 171 236 237 357 27 51 54 93 59 93 5 0
9 9 9 20 0 11 14 54 31 97 17 43 62 168 99 278 100 291 112 315 165 315 20 0
25 5 25 24 0 40 150 161 351 281 170 103 492 211 728 246 119 17 580 -4 524
-24 -11 -4 -27 -15 -35 -24 -12 -15 2 -16 177 -9 105 3 225 12 267 19 43 8 79
10 80 5 2 -4 39 1 83 12 204 49 468 164 580 253 70 55 75 62 59 74 -16 12 -4
27 132 166 82 83 165 176 184 204 19 29 38 53 42 53 4 0 11 -12 14 -26 l7 -25
38 40 c28 31 40 55 49 99 78 385 350 1129 482 1318 86 123 129 213 208 431 78
218 78 221 22 241 -27 9 -29 6 -114 -132z m-888 -2078 c-160 -154 -433 -378
-446 -366 -10 11 55 125 104 185 44 52 191 176 372 311 l65 49 3 -41 c4 -40 2
-43 -98 -138z m-2400 -1322 c0 -2 -9 -26 -21 -53 -26 -62 -58 -95 -144 -151
-98 -63 -165 -122 -242 -213 -36 -44 -72 -79 -80 -79 -8 0 -13 12 -13 33 0 18
-11 48 -25 69 -14 20 -25 42 -25 47 0 6 19 20 43 32 23 11 79 42 124 67 79 43
82 46 66 64 -9 10 -14 20 -12 22 2 1 48 20 102 41 l97 38 0 44 0 43 65 0 c36
0 65 -2 65 -4z m-5798 -1983 c14 -16 35 -55 47 -88 26 -70 22 -67 -48 38 -51
76 -51 105 1 50z"/>
<path d="M3786 6415 c-11 -8 -15 -15 -10 -15 6 0 19 7 30 15 10 8 15 14 9 14
-5 0 -19 -6 -29 -14z"/>
<path d="M8861 6236 l-95 -95 -160 -70 c-270 -117 -365 -141 -549 -141 -103 0
-280 12 -384 26 -42 5 -43 6 -43 44 l0 38 -77 4 c-72 4 -94 11 -303 102 -124
54 -230 100 -237 103 -6 2 -19 -9 -27 -25 l-16 -30 56 -32 c43 -24 53 -34 45
-44 -15 -18 20 -30 124 -44 44 -6 132 -27 195 -47 232 -74 272 -85 357 -100
49 -8 149 -20 223 -25 284 -22 338 -29 366 -43 26 -14 29 -13 39 5 7 14 70 44
207 97 113 44 208 87 223 101 15 14 36 24 47 22 28 -5 52 20 82 88 20 45 26
72 24 110 l-3 51 -94 -95z"/>
<path d="M9191 6245 c-21 -60 -98 -152 -178 -216 -43 -34 -80 -63 -82 -65 -2
-2 10 -6 25 -10 116 -26 131 -34 149 -74 17 -38 21 -40 60 -40 l43 0 11 63
c20 108 25 230 11 301 -7 36 -15 68 -19 71 -4 2 -13 -11 -20 -30z"/>
<path d="M4402 6224 c-24 -8 -74 -34 -110 -56 -171 -105 -384 -197 -575 -248
-147 -39 -241 -71 -302 -104 l-50 -27 150 5 c290 8 594 104 793 250 59 44 78
51 47 17 -8 -9 -17 -36 -21 -60 l-7 -44 46 5 c26 3 71 18 102 32 45 22 67 43
124 119 l69 92 -31 14 c-49 21 -183 24 -235 5z"/>
<path d="M9720 6228 c0 -6 7 -50 17 -98 l16 -87 102 -19 102 -20 16 50 c9 27
15 52 13 54 -2 2 -19 -4 -37 -13 -29 -15 -33 -16 -41 -2 -28 50 -79 103 -118
123 -50 26 -70 30 -70 12z"/>
<path d="M1130 6179 c0 -61 34 -176 78 -264 104 -208 169 -416 237 -764 48
-243 78 -337 120 -377 71 -67 228 -156 368 -208 l67 -25 0 42 0 42 -63 18
c-34 10 -97 34 -140 54 -77 36 -79 38 -133 125 -73 119 -91 167 -115 316 -12
76 -30 147 -44 177 -30 63 -51 175 -35 185 13 8 -23 163 -40 168 -5 2 -10 18
-10 35 0 44 -61 205 -140 367 l-69 140 -41 0 c-38 0 -40 -2 -40 -31z"/>
<path d="M2543 6020 l41 -101 19 38 c11 21 20 39 21 40 1 1 53 -15 116 -37
177 -59 353 -89 528 -90 70 0 72 1 72 25 0 17 -6 26 -22 29 -13 3 -114 23
-224 46 -111 22 -288 65 -393 95 -106 30 -193 55 -195 55 -2 0 15 -45 37 -100z"/>
<path d="M4930 6078 c-13 -24 -63 -86 -110 -138 -47 -52 -100 -115 -117 -140
-71 -105 -124 -239 -148 -379 -17 -93 -21 -301 -6 -286 44 45 382 613 382 642
0 10 -3 36 -6 59 -9 51 17 147 45 167 17 12 18 18 8 58 -15 63 -21 65 -48 17z"/>
<path d="M9316 6012 c-69 -138 -121 -276 -137 -364 -12 -67 -12 -67 -50 -73
-21 -4 -55 -15 -75 -26 -21 -10 -61 -25 -89 -34 -45 -13 -54 -20 -70 -55 -21
-46 -49 -55 -140 -48 -46 4 -64 12 -115 51 -33 26 -62 47 -64 47 -2 0 -6 -19
-9 -43 -10 -71 -24 -95 -67 -117 -27 -14 -40 -27 -40 -41 0 -21 3 -21 228 -17
177 3 242 8 294 22 64 17 71 23 160 115 82 85 152 177 119 157 -13 -9 -15 -15
29 167 32 137 48 177 88 219 22 24 24 33 19 73 -13 91 -20 88 -81 -33z"/>
<path d="M926 6012 c-7 -58 -5 -63 31 -119 51 -79 99 -197 118 -287 24 -119
20 -298 -11 -436 -18 -83 -27 -159 -31 -271 -6 -173 2 -247 44 -374 24 -76 30
-84 119 -172 74 -73 111 -101 177 -133 99 -48 207 -77 327 -86 86 -7 90 -6
120 19 30 26 30 26 170 20 l140 -6 0 41 0 42 -170 0 c-93 0 -170 4 -170 8 0 5
-64 12 -142 15 -163 7 -242 25 -307 69 -60 41 -76 59 -117 143 -57 117 -67
188 -61 435 5 172 10 232 27 300 30 122 38 343 16 430 -34 132 -112 264 -219
368 l-54 54 -7 -60z"/>
<path d="M8789 5857 c-138 -70 -224 -96 -341 -104 -65 -5 -78 -3 -78 9 0 12
-27 16 -152 21 -84 4 -189 14 -233 22 -340 64 -435 77 -562 79 -73 0 -133 -2
-133 -5 0 -10 198 -85 296 -113 213 -60 426 -81 734 -72 238 7 308 19 408 68
52 26 211 156 192 158 -3 0 -62 -29 -131 -63z"/>
<path d="M12804 5758 c-88 -94 -168 -258 -224 -462 -57 -208 -92 -292 -169
-409 -100 -151 -141 -198 -236 -272 -63 -49 -83 -70 -76 -79 7 -8 7 -16 1 -22
-7 -7 12 -10 56 -10 l66 1 92 95 c93 98 226 262 226 281 0 5 10 29 21 52 40
78 67 175 85 306 16 118 20 131 37 129 16 -3 22 11 43 92 14 57 45 137 76 200
29 58 53 109 53 114 0 21 -23 14 -51 -16z"/>
<path d="M7685 5640 c-27 -11 -61 -29 -74 -39 l-24 -18 84 -12 c462 -65 521
-91 578 -249 17 -49 42 -98 54 -109 21 -20 60 -43 71 -43 3 0 6 56 6 125 l0
125 -67 56 c-75 61 -215 134 -308 159 -33 9 -107 18 -165 21 -89 4 -112 1
-155 -16z"/>
<path d="M4147 5008 c-10 -40 -17 -78 -17 -84 0 -6 28 -30 62 -52 l61 -40 61
21 c59 21 62 24 77 72 9 28 19 65 22 83 l7 32 -44 0 -44 0 -19 -57 c-19 -57
-20 -58 -61 -61 -46 -3 -37 -17 -72 118 -6 22 -12 40 -14 40 -1 0 -10 -33 -19
-72z"/>
<path d="M1876 4963 c-4 -15 -9 -36 -12 -45 -5 -15 -1 -16 26 -7 17 6 43 8 58
4 15 -4 25 -5 22 -3 -3 2 -24 20 -46 41 l-41 39 -7 -29z"/>
<path d="M2414 4758 c3 -18 8 -57 11 -87 10 -93 62 -235 102 -283 53 -63 93
-129 93 -153 0 -12 11 -32 25 -45 l25 -23 0 84 c0 121 -20 197 -96 379 l-68
160 -48 0 -49 0 5 -32z"/>
<path d="M9318 3918 c-11 -43 -33 -95 -53 -128 -70 -108 -87 -157 -92 -260 -6
-128 -7 -131 -58 -195 -25 -30 -45 -57 -45 -59 0 -2 19 -7 43 -11 23 -4 48
-12 55 -18 11 -9 24 0 57 38 24 28 45 48 48 45 2 -3 8 -13 13 -22 8 -15 20 -3
76 70 87 113 143 167 193 182 22 7 58 22 80 33 37 18 208 129 229 148 5 4 -1
20 -13 35 -11 15 -21 33 -21 40 0 20 -59 18 -67 -2 -3 -8 -12 -13 -20 -10 -7
3 -46 -7 -86 -23 l-72 -29 -3 -61 -3 -61 -100 0 c-92 0 -102 -2 -120 -22 -27
-33 -25 -17 19 179 l39 171 -34 16 c-19 9 -37 16 -41 16 -4 0 -15 -33 -24 -72z"/>
<path d="M1290 3916 c0 -38 6 -51 44 -93 64 -71 130 -97 377 -149 115 -24 218
-44 229 -44 17 0 20 7 20 39 l0 38 -287 108 c-159 59 -309 116 -335 126 l-48
19 0 -44z"/>
<path d="M1361 3721 c61 -83 210 -174 338 -207 l64 -16 73 37 c41 20 74 40 74
44 0 5 -30 14 -67 21 -79 15 -331 88 -429 125 -36 14 -68 25 -70 25 -3 0 5
-13 17 -29z"/>
<path d="M1960 3600 c0 -16 33 -37 158 -99 l157 -80 -57 0 c-31 -1 -58 -6 -60
-11 -2 -7 -28 -6 -76 5 -40 8 -76 15 -79 15 -2 0 42 -23 99 -51 95 -48 113
-61 234 -183 204 -203 250 -299 310 -639 50 -285 96 -451 159 -577 12 -25 53
-128 90 -230 89 -245 158 -383 246 -492 75 -94 222 -220 245 -211 10 4 -27 46
-109 127 -68 66 -129 131 -136 144 -7 13 -16 53 -21 90 -12 99 -166 472 -214
521 -33 34 -36 42 -36 94 0 49 -3 57 -19 57 -21 0 -23 7 -66 300 -61 413 -111
566 -274 843 -28 46 -60 109 -71 138 -47 124 -269 259 -425 259 -48 0 -55 -2
-55 -20z"/>
<path d="M8811 2983 c0 -5 4 -17 9 -28 8 -18 9 -17 9 8 1 15 -3 27 -9 27 -5 0
-10 -3 -9 -7z"/>
<path d="M3541 2251 c-1 -122 -1 -123 35 -191 20 -38 51 -85 70 -104 35 -36
171 -122 179 -114 4 4 -110 437 -118 444 -2 2 -21 -14 -42 -36 l-40 -40 -42
82 -42 83 0 -124z"/>
<path d="M7885 2273 c-16 -8 -38 -23 -49 -32 -19 -17 -90 -150 -84 -157 3 -2
32 -21 65 -43 l61 -39 41 104 42 103 -21 41 c-11 22 -21 40 -23 40 -1 -1 -15
-8 -32 -17z"/>
<path d="M3851 2199 c-22 -9 -23 -13 -17 -67 10 -85 33 -156 78 -244 22 -44
38 -82 35 -84 -3 -3 -19 2 -37 11 -18 9 -33 15 -35 13 -7 -9 -35 -68 -35 -76
0 -7 96 -142 114 -159 2 -2 14 14 27 37 22 39 26 41 64 38 l40 -3 71 -160 c40
-87 77 -161 83 -163 8 -3 10 4 7 20 -3 12 -13 54 -21 93 -24 108 -46 176 -54
170 -4 -2 -19 8 -33 23 -54 58 -58 71 -58 174 0 54 2 98 5 98 3 0 41 -18 84
-39 l78 -40 -19 79 -20 79 -106 3 -105 3 -39 103 c-43 109 -49 114 -107 91z"/>
<path d="M5906 1938 c-3 -13 -3 -55 1 -95 6 -71 0 -86 -23 -63 -8 8 -16 -9
-27 -52 -34 -130 -72 -337 -63 -346 3 -2 32 13 65 34 50 32 62 45 71 79 19 70
30 146 30 202 l0 54 32 -17 c28 -14 42 -15 112 -5 53 7 90 18 106 31 14 12 32
23 40 26 18 6 45 44 32 44 -4 0 -47 -16 -95 -35 -48 -19 -91 -35 -95 -35 -11
0 -55 96 -73 158 -12 42 -12 42 -59 42 -41 0 -49 -3 -54 -22z"/>
<path d="M7137 1813 l-72 -148 0 -90 c0 -49 4 -103 9 -120 7 -28 11 -21 48 85
22 63 51 129 64 147 13 18 39 67 58 110 53 125 53 119 6 143 l-41 21 -72 -148z"/>
<path d="M9321 1905 c-50 -40 -121 -75 -205 -101 -37 -12 -61 -25 -64 -36 -5
-20 -16 -24 -87 -34 -68 -9 -113 -29 -138 -60 -11 -14 -38 -39 -60 -55 -22
-16 -37 -29 -33 -29 11 0 151 32 154 35 2 2 -1 13 -8 24 -12 24 -12 24 63 10
54 -9 62 -8 149 27 95 37 220 101 258 132 18 14 21 26 18 69 l-3 53 -44 -35z"/>
<path d="M6195 1608 c-22 -66 -28 -73 -90 -91 l-50 -14 -3 -107 c-2 -85 -6
-106 -17 -106 -22 0 -18 -23 16 -98 l30 -67 47 90 c26 50 62 110 81 134 55 69
80 144 81 234 l0 77 -39 0 c-39 0 -40 -1 -56 -52z"/>
<path d="M5476 1415 c-3 -10 -2 -23 4 -29 15 -15 22 -2 12 24 -8 21 -9 22 -16
5z"/>
<path d="M8755 1410 c-160 -10 -242 -31 -353 -91 -275 -147 -472 -324 -590
-531 -59 -106 -61 -120 -17 -141 l36 -17 11 32 c26 74 100 206 143 256 62 70
237 200 338 250 119 60 218 83 354 83 l113 0 70 60 c38 34 68 65 65 69 -3 5 0
12 7 16 13 8 -16 23 -42 22 -8 -1 -69 -4 -135 -8z"/>
<path d="M3550 1165 c0 -33 3 -37 55 -60 31 -13 84 -50 118 -82 48 -44 53 -47
21 -13 -23 25 -59 68 -79 95 -21 28 -55 60 -76 73 l-39 23 0 -36z"/>
<path d="M3491 1011 c-11 -7 0 -14 40 -25 30 -8 63 -16 74 -18 17 -3 20 -12
23 -66 l3 -62 39 0 40 0 0 -43 c0 -39 4 -46 58 -93 31 -28 79 -65 105 -83 43
-29 53 -32 93 -26 25 3 60 13 79 21 30 12 35 19 35 47 0 42 -8 52 -52 70 -20
9 -82 61 -139 119 -57 57 -90 86 -75 65 16 -21 26 -40 24 -43 -3 -3 -44 5 -91
17 l-86 21 -3 42 c-3 40 -4 41 -53 53 -63 14 -96 15 -114 4z"/>
<path d="M4416 920 c20 -41 56 -105 80 -141 24 -37 44 -71 44 -76 0 -11 291
-143 314 -143 8 0 16 7 20 15 3 10 19 15 46 15 40 0 40 0 40 39 0 24 5 41 14
44 7 3 16 22 20 41 6 33 10 36 44 37 36 1 36 1 -21 21 -32 11 -59 18 -60 17
-1 -2 -11 -22 -22 -44 -16 -32 -30 -43 -70 -58 -27 -10 -76 -19 -108 -20 l-57
-2 -160 165 -160 165 36 -75z"/>
<path d="M5225 730 c-16 -32 -43 -74 -62 -92 -24 -23 -33 -41 -33 -65 0 -32
-4 -35 -85 -75 -47 -23 -85 -45 -85 -49 0 -3 20 -12 44 -19 40 -11 47 -10 97
15 29 15 92 52 141 81 85 53 87 55 90 97 3 42 3 42 46 45 38 3 44 7 62 43 11
21 19 39 16 39 -2 0 -48 9 -101 20 -53 11 -98 20 -99 20 -1 0 -15 -27 -31 -60z"/>
<path d="M6922 739 c-42 -30 -43 -30 -86 -16 -39 14 -48 13 -99 -4 -89 -30
-224 -50 -338 -50 -97 1 -108 -1 -126 -22 -28 -30 -50 -100 -34 -105 8 -3 9
-19 5 -52 l-6 -49 62 -31 c34 -17 64 -29 66 -27 3 3 -3 21 -13 41 -16 34 -16
40 -2 79 l16 42 71 3 c52 2 82 -2 107 -14 34 -16 38 -16 112 11 43 15 114 44
160 65 68 32 85 45 102 77 12 21 28 48 37 61 21 28 18 28 -34 -9z"/>
</g>
</svg>
